<svg width="264" height="264" viewBox="0 0 264 264" fill="none" xmlns="http://www.w3.org/2000/svg">
<path d="M195.144 83.3149L170.545 107.921C181.598 125.48 179.508 148.998 164.245 164.265C148.981 179.533 125.471 181.624 107.917 170.567L70.3742 207.892C67.7969 205.8 65.2769 203.566 62.8428 201.16C24.7276 163.034 24.7276 100.96 62.8428 62.8338C83.547 42.1236 111.296 32.728 138.443 34.504L167.996 4.97114C123.466 -7.57532 73.6102 3.62483 38.6163 38.6002C-12.8721 90.1038 -12.8721 173.89 38.6163 225.394C49.6128 236.393 62.0983 245.015 75.4143 251.317L116.479 210.24C141.736 215.253 168.941 208.035 188.471 188.499C217.136 159.825 219.341 114.566 195.144 83.3149Z" fill="#347BF7"/>
<path d="M225.384 38.6002C214.416 27.6292 201.988 19.0358 188.729 12.7339L147.55 53.9253C122.35 48.9697 95.2307 56.2168 75.7579 75.6954C47.0928 104.369 44.8877 149.628 69.0856 180.879L93.6843 156.273C82.6307 138.714 84.7211 115.197 99.9844 99.929C115.248 84.6612 138.758 82.5701 156.312 93.6271L193.769 56.1596C196.318 58.222 198.78 60.4563 201.129 62.8338C239.244 100.96 239.244 163.034 201.129 201.16C180.482 221.813 152.79 231.266 125.7 229.547L96.1757 259.08C140.648 271.54 190.447 260.34 225.384 225.394C276.872 173.89 276.872 90.1038 225.384 38.6002Z" fill="#347BF7"/>
</svg>
