<svg width="265" height="265" viewBox="0 0 265 265" fill="none" xmlns="http://www.w3.org/2000/svg">
<path d="M132.942 200.289C95.4972 200.289 65.1526 169.93 65.1526 132.5C65.1526 95.07 95.5119 64.7107 132.942 64.7107" fill="#347BF7"/>
<path d="M265 265V132.5H200.304C200.304 169.797 170.18 200.054 132.942 200.289L132.5 265H265Z" fill="#347BF7"/>
<path d="M265 0H132.5V64.6959C169.797 64.6959 200.054 96.9567 200.289 134.195L265 132.5V0Z" fill="#347BF7"/>
<path d="M0 132.515V265H132.5C59.3341 265 0 205.681 0 132.515Z" fill="#347BF7"/>
<path d="M132.485 0.0147304H0V132.515C0 59.3488 59.3046 0.0294608 132.485 0.0147304Z" fill="#347BF7"/>
</svg>
