<svg width="24" height="24" viewBox="0 0 24 24" fill="none" xmlns="http://www.w3.org/2000/svg">
<path d="M22.9651 11.0018C22.6999 11.0018 22.4456 10.8964 22.258 10.7089C22.0705 10.5213 21.9651 10.267 21.9651 10.0018C21.963 7.88068 21.1195 5.84708 19.6197 4.34724C18.1198 2.84741 16.0862 2.00388 13.9651 2.00176C13.6999 2.00176 13.4456 1.8964 13.258 1.70887C13.0705 1.52133 12.9651 1.26698 12.9651 1.00176C12.9651 0.736543 13.0705 0.482189 13.258 0.294653C13.4456 0.107117 13.6999 0.00175967 13.9651 0.00175967C16.6164 0.00467126 19.1583 1.05917 21.033 2.93391C22.9077 4.80864 23.9622 7.35049 23.9651 10.0018C23.9651 10.267 23.8598 10.5213 23.6722 10.7089C23.4847 10.8964 23.2304 11.0018 22.9651 11.0018ZM19.9651 10.0018C19.9651 8.41046 19.333 6.88434 18.2078 5.75912C17.0826 4.6339 15.5564 4.00176 13.9651 4.00176C13.6999 4.00176 13.4456 4.10712 13.258 4.29465C13.0705 4.48219 12.9651 4.73654 12.9651 5.00176C12.9651 5.26698 13.0705 5.52133 13.258 5.70887C13.4456 5.8964 13.6999 6.00176 13.9651 6.00176C15.026 6.00176 16.0434 6.42319 16.7936 7.17333C17.5437 7.92348 17.9651 8.94089 17.9651 10.0018C17.9651 10.267 18.0705 10.5213 18.258 10.7089C18.4456 10.8964 18.6999 11.0018 18.9651 11.0018C19.2304 11.0018 19.4847 10.8964 19.6722 10.7089C19.8598 10.5213 19.9651 10.267 19.9651 10.0018ZM22.1481 22.1658L23.0581 21.1168C23.6373 20.5357 23.9626 19.7487 23.9626 18.9283C23.9626 18.1078 23.6373 17.3208 23.0581 16.7398C23.0271 16.7088 20.6211 14.8578 20.6211 14.8578C20.0437 14.3081 19.2767 14.002 18.4794 14.0031C17.6822 14.0043 16.916 14.3125 16.3401 14.8638L14.4341 16.4698C12.8783 15.8259 11.465 14.8809 10.2754 13.6893C9.08582 12.4976 8.14335 11.0827 7.50214 9.52576L9.10214 7.62576C9.65385 7.04993 9.96244 6.28364 9.96374 5.48616C9.96504 4.68869 9.65897 3.92139 9.10914 3.34376C9.10914 3.34376 7.25614 0.94076 7.22514 0.90976C6.65459 0.335508 5.88102 0.00878168 5.07157 0.000174449C4.26211 -0.00843278 3.48177 0.30177 2.89914 0.86376L1.74914 1.86376C-5.04486 9.74576 9.58514 24.2628 17.7271 24.0018C18.5493 24.0065 19.3641 23.8465 20.1234 23.5312C20.8828 23.2158 21.5712 22.7516 22.1481 22.1658Z" fill="white"/>
</svg>
