<svg width="22" height="18" viewBox="0 0 22 18" fill="none" xmlns="http://www.w3.org/2000/svg">
<path fill-rule="evenodd" clip-rule="evenodd" d="M21.7852 1.53772C21.444 0.997324 20.7618 0.648438 20.0473 0.648438C19.5632 0.648438 19.11 0.803287 18.7359 1.09529L18.7145 1.11362L7.50489 11.5075L2.75283 8.40042L2.72189 8.37893L2.68819 8.3625C2.40279 8.21586 2.08232 8.13939 1.76116 8.13939C1.13122 8.13939 0.543228 8.4276 0.225506 8.89657C-0.0860252 9.35354 -0.0743342 9.90152 0.257829 10.3604L0.275709 10.3844L5.47684 16.1764C5.99331 16.7516 6.78486 17.0809 7.64794 17.0809C8.50482 17.0809 9.29225 16.756 9.80872 16.1891L21.6277 3.19683L21.6455 3.17597C22.063 2.67223 22.1146 2.06042 21.7852 1.53772Z" fill="#347BF7"/>
</svg>
