<svg width="6" height="10" viewBox="0 0 6 10" fill="none" xmlns="http://www.w3.org/2000/svg">
<path d="M4.80922e-07 5C0.00587704 4.80271 0.082273 4.6336 0.240941 4.4814L4.81293 0.191657C4.94809 0.0676436 5.10676 -7.80897e-08 5.30069 -6.1136e-08C5.69442 -2.67149e-08 6 0.293123 6 0.670801C6 0.851184 5.9236 1.02029 5.78844 1.14994L1.67483 5L5.78844 8.85006C5.9236 8.97971 6 9.14318 6 9.3292C6 9.70688 5.69442 10 5.30068 10C5.11263 10 4.94809 9.93236 4.81293 9.80834L0.240941 5.51296C0.0763964 5.3664 4.62268e-07 5.19729 4.80922e-07 5Z" fill="#AAAAAA"/>
</svg>
