<svg width="16" height="16" viewBox="0 0 16 16" fill="none" xmlns="http://www.w3.org/2000/svg">
<path d="M14.6676 8.58337C14.5387 10.1033 13.8923 11.5335 12.8359 12.6369C11.7794 13.7402 10.3762 14.4503 8.85922 14.6494C7.34222 14.8484 5.80254 14.5244 4.49564 13.7312C3.18873 12.938 2.19315 11.7231 1.67407 10.2883C1.15499 8.85343 1.14362 7.28477 1.64183 5.84258C2.14004 4.40039 3.11789 3.17134 4.41315 2.35935C5.70842 1.54736 7.24323 1.20123 8.76296 1.37839C10.2827 1.55555 11.696 2.24535 12.7684 3.33335H10.6805C10.5032 3.33335 10.3331 3.40359 10.2076 3.52861C10.0822 3.65364 10.0118 3.82321 10.0118 4.00002C10.0118 4.17683 10.0822 4.3464 10.2076 4.47143C10.3331 4.59645 10.5032 4.66669 10.6805 4.66669H13.4512C13.7805 4.66651 14.0963 4.53602 14.3291 4.30389C14.562 4.07176 14.6929 3.75697 14.6931 3.42868V0.66667C14.6931 0.489858 14.6226 0.320288 14.4972 0.195263C14.3718 0.0702382 14.2017 0 14.0243 0C13.8469 0 13.6768 0.0702382 13.5514 0.195263C13.426 0.320288 13.3555 0.489858 13.3555 0.66667V2.05201C12.0105 0.853823 10.2993 0.14299 8.49869 0.0344744C6.69813 -0.0740411 4.91349 0.426107 3.4334 1.45403C1.95332 2.48195 0.864342 3.97754 0.342593 5.6989C-0.179155 7.42027 -0.103166 9.26676 0.558272 10.9397C1.21971 12.6127 2.42792 14.0144 3.98749 14.918C5.54706 15.8216 7.3668 16.1743 9.1524 15.9191C10.938 15.6639 12.585 14.8158 13.8271 13.5118C15.0693 12.2078 15.8338 10.5242 15.9971 8.73337C16.0058 8.64054 15.9949 8.54692 15.9652 8.4585C15.9356 8.37007 15.8878 8.28877 15.8249 8.21978C15.762 8.15079 15.6853 8.09562 15.5998 8.05779C15.5143 8.01996 15.4219 8.00029 15.3284 8.00004C15.1652 7.99808 15.0072 8.05673 14.885 8.16456C14.7629 8.2724 14.6854 8.42169 14.6676 8.58337Z" fill="black"/>
</svg>
