<svg width="169" height="52" viewBox="0 0 169 52" fill="none" xmlns="http://www.w3.org/2000/svg">
<path d="M125.469 40.9904V18.202H132.362V20.1159H132.572C134.506 18.585 136.803 17.819 139.465 17.819C143.724 17.819 145.854 19.8172 145.854 23.815V40.9891H138.71V25.8133C138.71 24.9343 138.506 24.3188 138.1 23.963C137.693 23.6086 136.986 23.432 135.978 23.432C134.969 23.432 133.834 23.6735 132.657 24.1552V40.9891H125.47L125.469 40.9904Z" fill="#85B0FA"/>
<path d="M96.831 40.9904L90.695 30.868V40.9904H83.5503V13.9964H90.695V28.3166L96.9157 19.0875H104.019L97.0428 29.1242L104.398 40.9904H96.831Z" fill="#347BF7"/>
<path d="M161.384 40.9904L155.248 30.868V40.9904H148.104V13.9964H155.248V28.3166L161.469 19.0875H168.573L161.596 29.1242L168.951 40.9904H161.384Z" fill="#85B0FA"/>
<path d="M59.5167 8.97939L46.771 40.9904H53.9323L59.5167 26.965V40.9904H66.678V8.97939H59.5167Z" fill="#347BF7"/>
<path d="M113.807 10.6297H106.646V40.9904H113.807V10.6297Z" fill="#85B0FA"/>
<path d="M76.0887 40.9904H68.9274V26.5144C68.9274 19.6121 74.4771 13.9964 81.2984 13.9964V21.2429C78.4254 21.2429 76.0887 23.6073 76.0887 26.5144V40.9904Z" fill="#347BF7"/>
<path d="M123.219 21.5701H116.058V40.9904H123.219V21.5701Z" fill="#85B0FA"/>
<path d="M123.19 10.6297H116.085V17.819H123.19V10.6297Z" fill="#85B0FA"/>
<path d="M46.771 43.2406H49.0704V43.6742H47.2766V44.9402H48.7881V45.3738H47.2766V46.8424H49.1307V47.2773H46.771V43.2406Z" fill="#CCCBCB"/>
<path d="M50.4011 45.7218L49.5041 44.2923H50.0366L50.4331 44.9467C50.5255 45.1168 50.6295 45.2817 50.727 45.4479H50.7488C50.8412 45.283 50.9284 45.1181 51.0144 44.9467L51.3788 44.2923H51.8959L50.999 45.7725L51.9716 47.2799H51.4289L50.9939 46.5814C50.8964 46.3996 50.7873 46.2191 50.6782 46.0477H50.6513C50.5486 46.2178 50.4498 46.3996 50.3472 46.5814L49.9507 47.2799H49.4284L50.4011 45.7231V45.7218Z" fill="#CCCBCB"/>
<path d="M53.0675 44.291L53.1111 44.6325H53.1265C53.3921 44.413 53.7244 44.2144 54.0671 44.2144C54.828 44.2144 55.2411 44.8194 55.2411 45.7374C55.2411 46.7606 54.6381 47.3487 53.958 47.3487C53.6924 47.3487 53.4101 47.2215 53.1432 47.0021L53.1534 47.5253V48.5381H52.6581V44.291H53.0675ZM54.7266 45.7426C54.7266 45.083 54.5097 44.6376 53.949 44.6376C53.6988 44.6376 53.4434 44.7805 53.156 45.0505V46.6177C53.4216 46.8488 53.6834 46.9306 53.8784 46.9306C54.3686 46.9306 54.7266 46.4853 54.7266 45.7426Z" fill="#CCCBCB"/>
<path d="M55.9148 45.7867C55.9148 44.8181 56.5615 44.2144 57.2467 44.2144C57.9961 44.2144 58.4208 44.7649 58.4208 45.6166C58.4208 45.7257 58.4106 45.8309 58.399 45.9023H56.4101C56.4435 46.5411 56.8284 46.9475 57.3879 46.9475C57.6766 46.9475 57.9101 46.8592 58.127 46.7112L58.3066 47.041C58.0461 47.2111 57.7305 47.3487 57.3288 47.3487C56.5461 47.3487 55.9148 46.7709 55.9148 45.7867ZM57.9858 45.54C57.9858 44.9402 57.7138 44.6156 57.2519 44.6156C56.8323 44.6156 56.464 44.9571 56.405 45.54H57.9871H57.9858Z" fill="#CCCBCB"/>
<path d="M59.6629 44.291L59.7066 44.8363H59.722C59.9285 44.4572 60.2275 44.2144 60.5586 44.2144C60.6907 44.2144 60.7818 44.2299 60.8742 44.2806L60.7818 44.7207C60.683 44.6818 60.6138 44.6714 60.4931 44.6714C60.2481 44.6714 59.9439 44.848 59.7489 45.3596V47.2786H59.2536V44.291H59.6629Z" fill="#CCCBCB"/>
<path d="M61.5594 46.3541V44.6987H61.118V44.3182L61.58 44.291L61.639 43.4496H62.0522V44.291H62.8503V44.6987H62.0522V46.3658C62.0522 46.7346 62.1664 46.9436 62.5077 46.9436C62.6116 46.9436 62.7477 46.9047 62.8452 46.8657L62.9427 47.2397C62.7746 47.2955 62.5783 47.35 62.3999 47.35C61.7686 47.35 61.5582 46.9488 61.5582 46.3541H61.5594Z" fill="#CCCBCB"/>
<path d="M64.7096 46.7502L65.0137 46.4035C65.296 46.706 65.6989 46.9047 66.1121 46.9047C66.6344 46.9047 66.9487 46.6411 66.9487 46.2451C66.9487 45.8491 66.6613 45.6997 66.2853 45.5297L65.7092 45.2765C65.3396 45.1168 64.8982 44.8311 64.8982 44.2429C64.8982 43.621 65.432 43.1704 66.1544 43.1704C66.6279 43.1704 67.0463 43.3743 67.3286 43.6716L67.0629 43.9962C66.8178 43.7651 66.5253 43.6158 66.1544 43.6158C65.7041 43.6158 65.4102 43.8469 65.4102 44.2105C65.4102 44.6 65.758 44.7493 66.0685 44.8817L66.6395 45.1297C67.1014 45.3336 67.4607 45.6089 67.4607 46.2074C67.4607 46.8449 66.9385 47.3513 66.107 47.3513C65.5411 47.3513 65.0574 47.1202 64.7096 46.7515V46.7502Z" fill="#CCCBCB"/>
<path d="M68.083 45.7867C68.083 44.7909 68.7298 44.2144 69.4535 44.2144C70.1772 44.2144 70.8226 44.7922 70.8226 45.7867C70.8226 46.7813 70.1772 47.3487 69.4535 47.3487C68.7298 47.3487 68.083 46.7761 68.083 45.7867ZM70.3119 45.7867C70.3119 45.0999 69.9642 44.6325 69.4522 44.6325C68.9402 44.6325 68.5989 45.0999 68.5989 45.7867C68.5989 46.4736 68.9415 46.9306 69.4522 46.9306C69.9629 46.9306 70.3119 46.4736 70.3119 45.7867Z" fill="#CCCBCB"/>
<path d="M71.7054 46.6839V42.8991H72.2007V46.7164C72.2007 46.8696 72.2649 46.9306 72.3419 46.9306C72.3688 46.9306 72.3906 46.9306 72.4458 46.9203L72.5164 47.3046C72.4458 47.3319 72.365 47.3487 72.2277 47.3487C71.8581 47.3487 71.7054 47.1072 71.7054 46.6826V46.6839Z" fill="#CCCBCB"/>
<path d="M73.3273 46.1828V44.291H73.8214V46.123C73.8214 46.6787 73.9843 46.9151 74.3757 46.9151C74.6798 46.9151 74.8928 46.767 75.1738 46.41V44.2923H75.6678V47.2799H75.2546L75.2162 46.8125H75.2008C74.9223 47.1371 74.6297 47.3513 74.2217 47.3513C73.6019 47.3513 73.3248 46.9449 73.3248 46.1854L73.3273 46.1828Z" fill="#CCCBCB"/>
<path d="M76.8573 46.3541V44.6987H76.4172V44.3182L76.8791 44.291L76.9382 43.4496H77.3513V44.291H78.1495V44.6987H77.3513V46.3658C77.3513 46.7346 77.4643 46.9436 77.8069 46.9436C77.9108 46.9436 78.0468 46.9047 78.1443 46.8657L78.2419 47.2397C78.0738 47.2955 77.8774 47.35 77.6991 47.35C77.0678 47.35 76.856 46.9488 76.856 46.3541H76.8573Z" fill="#CCCBCB"/>
<path d="M78.8449 43.3392C78.8449 43.1471 78.981 43.0146 79.176 43.0146C79.371 43.0146 79.5083 43.1471 79.5083 43.3392C79.5083 43.5431 79.3723 43.6742 79.176 43.6742C78.9797 43.6742 78.8449 43.5418 78.8449 43.3392ZM78.9271 44.291H79.4211V47.2786H78.9271V44.291Z" fill="#CCCBCB"/>
<path d="M80.3065 45.7867C80.3065 44.7909 80.9532 44.2144 81.6769 44.2144C82.4006 44.2144 83.046 44.7922 83.046 45.7867C83.046 46.7813 82.4006 47.3487 81.6769 47.3487C80.9532 47.3487 80.3065 46.7761 80.3065 45.7867ZM82.5353 45.7867C82.5353 45.0999 82.1876 44.6325 81.6756 44.6325C81.1636 44.6325 80.8223 45.0999 80.8223 45.7867C80.8223 46.4736 81.1649 46.9306 81.6756 46.9306C82.1863 46.9306 82.5353 46.4736 82.5353 45.7867Z" fill="#CCCBCB"/>
<path d="M83.9288 44.291H84.3369L84.3805 44.7207H84.3959C84.6795 44.4403 84.9836 44.2144 85.3852 44.2144C86.005 44.2144 86.2873 44.6208 86.2873 45.3855V47.2773H85.792V45.4504C85.792 44.8895 85.6239 44.6532 85.2325 44.6532C84.9297 44.6532 84.7218 44.8077 84.4229 45.109V47.276H83.9276V44.2884L83.9288 44.291Z" fill="#CCCBCB"/>
<path d="M87.0264 46.9371L87.2702 46.606C87.5255 46.8151 87.7924 46.9579 88.1466 46.9579C88.538 46.9579 88.7279 46.7489 88.7279 46.4905C88.7279 46.1828 88.3801 46.0503 88.0529 45.9244C87.6397 45.7699 87.1894 45.566 87.1894 45.0609C87.1894 44.5883 87.5692 44.2144 88.2108 44.2144C88.5752 44.2144 88.896 44.3689 89.1244 44.5494L88.8857 44.874C88.6842 44.7194 88.4776 44.6104 88.2159 44.6104C87.8412 44.6104 87.668 44.809 87.668 45.0389C87.668 45.3245 87.9721 45.4297 88.3031 45.5556C88.733 45.7205 89.2052 45.8958 89.2052 46.4632C89.2052 46.9475 88.8241 47.3487 88.1286 47.3487C87.7103 47.3487 87.3074 47.1721 87.0251 46.9371H87.0264Z" fill="#CCCBCB"/>
<path d="M91.4161 44.6987H91.0145V44.3182L91.4161 44.291V43.8132C91.4161 43.2081 91.6881 42.829 92.2758 42.829C92.4555 42.829 92.6338 42.8666 92.7698 42.9276L92.662 43.3068C92.5543 43.2574 92.4336 43.2302 92.3297 43.2302C92.0474 43.2302 91.9114 43.434 91.9114 43.8183V44.291H92.5363V44.6987H91.9114V47.2786H91.4161V44.6987Z" fill="#CCCBCB"/>
<path d="M92.9264 45.7867C92.9264 44.7909 93.5731 44.2144 94.2968 44.2144C95.0205 44.2144 95.6659 44.7922 95.6659 45.7867C95.6659 46.7813 95.0205 47.3487 94.2968 47.3487C93.5731 47.3487 92.9264 46.7761 92.9264 45.7867ZM95.1565 45.7867C95.1565 45.0999 94.8088 44.6325 94.2968 44.6325C93.7848 44.6325 93.4435 45.0999 93.4435 45.7867C93.4435 46.4736 93.7861 46.9306 94.2968 46.9306C94.8075 46.9306 95.1565 46.4736 95.1565 45.7867Z" fill="#CCCBCB"/>
<path d="M96.9581 44.291L97.0017 44.8363H97.0171C97.2237 44.4572 97.5227 44.2144 97.8537 44.2144C97.9859 44.2144 98.077 44.2299 98.1694 44.2806L98.077 44.7207C97.9782 44.6818 97.9089 44.6714 97.7883 44.6714C97.5432 44.6714 97.2391 44.848 97.0441 45.3596V47.2786H96.5488V44.291H96.9581Z" fill="#CCCBCB"/>
<path d="M99.9068 45.2479C99.9068 43.9547 100.607 43.1678 101.608 43.1678C102.609 43.1678 103.311 43.9547 103.311 45.2479C103.311 46.5411 102.609 47.3487 101.608 47.3487C100.607 47.3487 99.9068 46.5411 99.9068 45.2479ZM102.794 45.2479C102.794 44.2351 102.32 43.6132 101.608 43.6132C100.896 43.6132 100.424 44.2351 100.424 45.2479C100.424 46.2607 100.892 46.9034 101.608 46.9034C102.324 46.9034 102.794 46.2542 102.794 45.2479Z" fill="#CCCBCB"/>
<path d="M104.231 44.291H104.639L104.683 44.7207H104.698C104.982 44.4403 105.286 44.2144 105.687 44.2144C106.307 44.2144 106.59 44.6208 106.59 45.3855V47.2773H106.094V45.4504C106.094 44.8895 105.926 44.6532 105.535 44.6532C105.232 44.6532 105.024 44.8077 104.725 45.109V47.276H104.23V44.2884L104.231 44.291Z" fill="#CCCBCB"/>
<path d="M107.66 46.6839V42.8991H108.155V46.7164C108.155 46.8696 108.219 46.9306 108.296 46.9306C108.323 46.9306 108.345 46.9306 108.4 46.9203L108.471 47.3046C108.4 47.3319 108.319 47.3487 108.182 47.3487C107.812 47.3487 107.66 47.1072 107.66 46.6826V46.6839Z" fill="#CCCBCB"/>
<path d="M109.235 43.3392C109.235 43.1471 109.371 43.0146 109.566 43.0146C109.761 43.0146 109.899 43.1471 109.899 43.3392C109.899 43.5431 109.763 43.6742 109.566 43.6742C109.37 43.6742 109.235 43.5418 109.235 43.3392ZM109.316 44.291H109.812V47.2786H109.316V44.291Z" fill="#CCCBCB"/>
<path d="M110.92 44.291H111.327L111.371 44.7207H111.386C111.67 44.4403 111.974 44.2144 112.375 44.2144C112.995 44.2144 113.277 44.6208 113.277 45.3855V47.2773H112.782V45.4504C112.782 44.8895 112.614 44.6532 112.223 44.6532C111.917 44.6532 111.712 44.8077 111.412 45.109V47.276H110.918V44.2884L110.92 44.291Z" fill="#CCCBCB"/>
<path d="M114.123 45.7867C114.123 44.8181 114.77 44.2144 115.455 44.2144C116.204 44.2144 116.629 44.7649 116.629 45.6166C116.629 45.7257 116.619 45.8309 116.607 45.9023H114.618C114.652 46.5411 115.037 46.9475 115.596 46.9475C115.885 46.9475 116.118 46.8592 116.335 46.7112L116.515 47.041C116.254 47.2111 115.939 47.3487 115.537 47.3487C114.754 47.3487 114.123 46.7709 114.123 45.7867ZM116.195 45.54C116.195 44.9402 115.923 44.6156 115.461 44.6156C115.042 44.6156 114.673 44.9571 114.614 45.54H116.197H116.195Z" fill="#CCCBCB"/>
<path d="M118.546 46.7502L118.85 46.4035C119.132 46.706 119.535 46.9047 119.949 46.9047C120.471 46.9047 120.785 46.6411 120.785 46.2451C120.785 45.8491 120.498 45.6997 120.122 45.5297L119.546 45.2765C119.176 45.1168 118.735 44.8311 118.735 44.2429C118.735 43.621 119.268 43.1704 119.991 43.1704C120.464 43.1704 120.883 43.3743 121.165 43.6716L120.899 43.9962C120.654 43.7651 120.362 43.6158 119.991 43.6158C119.54 43.6158 119.247 43.8469 119.247 44.2105C119.247 44.6 119.594 44.7493 119.905 44.8817L120.476 45.1297C120.938 45.3336 121.297 45.6089 121.297 46.2074C121.297 46.8449 120.775 47.3513 119.943 47.3513C119.378 47.3513 118.894 47.1202 118.546 46.7515V46.7502Z" fill="#CCCBCB"/>
<path d="M121.958 46.5022C121.958 45.853 122.517 45.5284 123.774 45.3855C123.774 45.0012 123.648 44.6325 123.165 44.6325C122.823 44.6325 122.514 44.7922 122.28 44.9519L122.084 44.6052C122.356 44.4286 122.774 44.2144 123.248 44.2144C123.965 44.2144 124.269 44.7039 124.269 45.4414V47.2786H123.862L123.819 46.9216H123.803C123.52 47.1579 123.188 47.35 122.824 47.35C122.33 47.35 121.959 47.0423 121.959 46.5035L121.958 46.5022ZM123.774 46.5515V45.7153C122.779 45.8361 122.442 46.0841 122.442 46.4684C122.442 46.8099 122.671 46.9475 122.964 46.9475C123.257 46.9475 123.486 46.8099 123.775 46.5515H123.774Z" fill="#CCCBCB"/>
<path d="M125.397 44.6987H124.995V44.3182L125.397 44.291V43.8132C125.397 43.2081 125.669 42.829 126.257 42.829C126.436 42.829 126.615 42.8666 126.751 42.9276L126.643 43.3068C126.535 43.2574 126.414 43.2302 126.31 43.2302C126.028 43.2302 125.892 43.434 125.892 43.8183V44.291H126.517V44.6987H125.892V47.2786H125.397V44.6987Z" fill="#CCCBCB"/>
<path d="M126.907 45.7867C126.907 44.8181 127.554 44.2144 128.239 44.2144C128.988 44.2144 129.413 44.7649 129.413 45.6166C129.413 45.7257 129.403 45.8309 129.391 45.9023H127.402C127.436 46.5411 127.821 46.9475 128.38 46.9475C128.669 46.9475 128.902 46.8592 129.119 46.7112L129.299 47.041C129.038 47.2111 128.723 47.3487 128.321 47.3487C127.538 47.3487 126.907 46.7709 126.907 45.7867ZM128.978 45.54C128.978 44.9402 128.706 44.6156 128.244 44.6156C127.825 44.6156 127.456 44.9571 127.397 45.54H128.979H128.978Z" fill="#CCCBCB"/>
<path d="M130.275 46.3541V44.6987H129.834V44.3182L130.296 44.291L130.355 43.4496H130.768V44.291H131.566V44.6987H130.768V46.3658C130.768 46.7346 130.882 46.9436 131.224 46.9436C131.328 46.9436 131.464 46.9047 131.561 46.8657L131.659 47.2397C131.491 47.2955 131.294 47.35 131.116 47.35C130.485 47.35 130.274 46.9488 130.274 46.3541H130.275Z" fill="#CCCBCB"/>
<path d="M132.047 48.5043L132.145 48.1018C132.204 48.1239 132.291 48.1511 132.368 48.1511C132.706 48.1511 132.917 47.8759 133.037 47.5071L133.102 47.2812L131.918 44.2884H132.435L133.038 45.9503C133.125 46.2087 133.229 46.5164 133.322 46.7865H133.349C133.431 46.5164 133.517 46.2139 133.599 45.9503L134.126 44.2884H134.611L133.496 47.5227C133.295 48.1109 132.985 48.5627 132.398 48.5627C132.255 48.5627 132.142 48.5407 132.05 48.5017L132.047 48.5043Z" fill="#CCCBCB"/>
<path d="M136.424 46.5022C136.424 45.853 136.984 45.5284 138.24 45.3855C138.24 45.0012 138.114 44.6325 137.632 44.6325C137.289 44.6325 136.98 44.7922 136.746 44.9519L136.55 44.6052C136.822 44.4286 137.24 44.2144 137.714 44.2144C138.431 44.2144 138.735 44.7039 138.735 45.4414V47.2786H138.329L138.285 46.9216H138.27C137.986 47.1579 137.655 47.35 137.29 47.35C136.796 47.35 136.426 47.0423 136.426 46.5035L136.424 46.5022ZM138.24 46.5515V45.7153C137.246 45.8361 136.908 46.0841 136.908 46.4684C136.908 46.8099 137.138 46.9475 137.43 46.9475C137.723 46.9475 137.953 46.8099 138.241 46.5515H138.24Z" fill="#CCCBCB"/>
<path d="M139.781 44.291H140.189L140.233 44.7207H140.248C140.532 44.4403 140.836 44.2144 141.237 44.2144C141.857 44.2144 142.14 44.6208 142.14 45.3855V47.2773H141.644V45.4504C141.644 44.8895 141.476 44.6532 141.085 44.6532C140.782 44.6532 140.574 44.8077 140.275 45.109V47.276H139.78V44.2884L139.781 44.291Z" fill="#CCCBCB"/>
<path d="M142.999 45.7867C142.999 44.8181 143.602 44.2144 144.276 44.2144C144.624 44.2144 144.847 44.3468 145.107 44.5662L145.086 44.0495V42.9004H145.575V47.2786H145.173L145.129 46.9267H145.113C144.879 47.1579 144.57 47.35 144.216 47.35C143.477 47.35 142.998 46.7839 142.998 45.788L142.999 45.7867ZM145.086 46.519V44.9519C144.83 44.7259 144.607 44.6389 144.362 44.6389C143.883 44.6389 143.509 45.1012 143.509 45.7828C143.509 46.5035 143.803 46.9319 144.325 46.9319C144.597 46.9319 144.835 46.7943 145.087 46.519H145.086Z" fill="#CCCBCB"/>
<path d="M147.769 46.7502L148.073 46.4035C148.355 46.706 148.758 46.9047 149.171 46.9047C149.694 46.9047 150.008 46.6411 150.008 46.2451C150.008 45.8491 149.72 45.6997 149.345 45.5297L148.768 45.2765C148.399 45.1168 147.957 44.8311 147.957 44.2429C147.957 43.621 148.491 43.1704 149.214 43.1704C149.687 43.1704 150.105 43.3743 150.388 43.6716L150.122 43.9962C149.877 43.7651 149.584 43.6158 149.214 43.6158C148.763 43.6158 148.469 43.8469 148.469 44.2105C148.469 44.6 148.817 44.7493 149.128 44.8817L149.699 45.1297C150.161 45.3336 150.52 45.6089 150.52 46.2074C150.52 46.8449 149.998 47.3513 149.166 47.3513C148.6 47.3513 148.117 47.1202 147.769 46.7515V46.7502Z" fill="#CCCBCB"/>
<path d="M151.142 45.7867C151.142 44.8181 151.789 44.2144 152.474 44.2144C153.224 44.2144 153.648 44.7649 153.648 45.6166C153.648 45.7257 153.638 45.8309 153.626 45.9023H151.638C151.671 46.5411 152.056 46.9475 152.615 46.9475C152.904 46.9475 153.138 46.8592 153.354 46.7112L153.534 47.041C153.274 47.2111 152.958 47.3487 152.556 47.3487C151.774 47.3487 151.142 46.7709 151.142 45.7867ZM153.213 45.54C153.213 44.9402 152.941 44.6156 152.479 44.6156C152.06 44.6156 151.691 44.9571 151.632 45.54H153.215H153.213Z" fill="#CCCBCB"/>
<path d="M154.26 45.7867C154.26 44.7909 154.93 44.2144 155.685 44.2144C156.071 44.2144 156.336 44.3793 156.549 44.5662L156.294 44.896C156.12 44.7415 155.941 44.6325 155.708 44.6325C155.169 44.6325 154.777 45.0999 154.777 45.7867C154.777 46.4736 155.147 46.9306 155.691 46.9306C155.963 46.9306 156.202 46.8047 156.387 46.6333L156.603 46.9683C156.338 47.2098 156 47.3474 155.646 47.3474C154.863 47.3474 154.26 46.7748 154.26 45.7854V45.7867Z" fill="#CCCBCB"/>
<path d="M157.319 46.1828V44.291H157.813V46.123C157.813 46.6787 157.976 46.9151 158.368 46.9151C158.672 46.9151 158.885 46.767 159.166 46.41V44.2923H159.66V47.2799H159.247L159.208 46.8125H159.193C158.914 47.1371 158.622 47.3513 158.214 47.3513C157.594 47.3513 157.317 46.9449 157.317 46.1854L157.319 46.1828Z" fill="#CCCBCB"/>
<path d="M161.17 44.291L161.214 44.8363H161.229C161.436 44.4572 161.735 44.2144 162.066 44.2144C162.198 44.2144 162.289 44.2299 162.381 44.2806L162.289 44.7207C162.19 44.6818 162.121 44.6714 162 44.6714C161.755 44.6714 161.451 44.848 161.256 45.3596V47.2786H160.761V44.291H161.17Z" fill="#CCCBCB"/>
<path d="M162.899 43.3392C162.899 43.1471 163.035 43.0146 163.23 43.0146C163.425 43.0146 163.562 43.1471 163.562 43.3392C163.562 43.5431 163.426 43.6742 163.23 43.6742C163.033 43.6742 162.899 43.5418 162.899 43.3392ZM162.979 44.291H163.475V47.2786H162.979V44.291Z" fill="#CCCBCB"/>
<path d="M164.671 46.3541V44.6987H164.229V44.3182L164.691 44.291L164.75 43.4496H165.163V44.291H165.961V44.6987H165.163V46.3658C165.163 46.7346 165.278 46.9436 165.619 46.9436C165.723 46.9436 165.859 46.9047 165.956 46.8657L166.054 47.2397C165.886 47.2955 165.689 47.35 165.511 47.35C164.88 47.35 164.669 46.9488 164.669 46.3541H164.671Z" fill="#CCCBCB"/>
<path d="M166.44 48.5043L166.538 48.1018C166.597 48.1239 166.684 48.1511 166.761 48.1511C167.098 48.1511 167.31 47.8759 167.429 47.5071L167.495 47.2812L166.31 44.2884H166.826L167.429 45.9503C167.517 46.2087 167.621 46.5164 167.713 46.7865H167.74C167.821 46.5164 167.908 46.2139 167.989 45.9503L168.516 44.2884H169L167.886 47.5227C167.685 48.1109 167.376 48.5627 166.788 48.5627C166.645 48.5627 166.532 48.5407 166.44 48.5017V48.5043Z" fill="#CCCBCB"/>
<path d="M0.0625603 1.38888L7.23288 21.4701C7.88729 23.3035 9.60673 24.524 11.5328 24.524H39.4955C40.54 24.524 40.9108 23.1243 40.0062 22.5958L1.53435 0.142405C0.709275 -0.339305 -0.259512 0.48259 0.0638447 1.38888H0.0625603Z" fill="#347BF7"/>
<path d="M23.5047 39.3258L40.0485 29.754C40.957 29.2281 40.5887 27.8245 39.5416 27.8245L14.0401 27.8193C12.8942 27.8193 12.3142 29.2164 13.1175 30.0435L21.9187 39.1051C22.3357 39.5349 22.9863 39.6258 23.5034 39.3271L23.5047 39.3258Z" fill="#85B0FA"/>
<path d="M7.15974 31.821L0.379504 50.487C0.0227844 51.4712 1.07498 52.3684 1.97319 51.8464L17.9704 42.5264C18.8532 42.0123 19.0162 40.7918 18.3002 40.0582L9.71323 31.2614C8.91639 30.4447 7.54982 30.7447 7.15846 31.8223L7.15974 31.821Z" fill="#AECAFC"/>
<path d="M125.469 40.9905V18.2021H132.362V20.116H132.573C134.507 18.5851 136.803 17.8191 139.466 17.8191C143.725 17.8191 145.855 19.8173 145.855 23.8151V40.9892H138.71V25.8134C138.71 24.9344 138.506 24.3189 138.101 23.9632C137.694 23.6087 136.987 23.4321 135.978 23.4321C134.97 23.4321 133.834 23.6736 132.657 24.1553V40.9892H125.47L125.469 40.9905Z" fill="white"/>
<path d="M96.8315 40.9905L90.6954 30.8681V40.9905H83.5508V13.9966H90.6954V28.3167L96.9162 19.0876H104.02L97.0433 29.1243L104.398 40.9905H96.8315Z" fill="white"/>
<path d="M161.385 40.9905L155.249 30.8681V40.9905H148.104V13.9966H155.249V28.3167L161.47 19.0876H168.573L161.597 29.1243L168.952 40.9905H161.385Z" fill="white"/>
<path d="M59.5172 8.97949L46.7715 40.9905H53.9328L59.5172 26.9651V40.9905H66.6785V8.97949H59.5172Z" fill="white"/>
<path d="M113.808 10.6298H106.646V40.9905H113.808V10.6298Z" fill="white"/>
<path d="M76.0892 40.9905H68.9279V26.5145C68.9279 19.6122 74.4776 13.9966 81.2989 13.9966V21.243C78.4258 21.243 76.0892 23.6074 76.0892 26.5145V40.9905Z" fill="white"/>
<path d="M123.22 21.5702H116.058V40.9905H123.22V21.5702Z" fill="white"/>
<path d="M123.19 10.6298H116.085V17.8191H123.19V10.6298Z" fill="white"/>
<path d="M46.7715 43.2407H49.0709V43.6743H47.2771V44.9403H48.7886V45.3739H47.2771V46.8425H49.1312V47.2774H46.7715V43.2407Z" fill="white"/>
<path d="M50.4016 45.7219L49.5046 44.2924H50.0371L50.4336 44.9468C50.526 45.1169 50.63 45.2818 50.7275 45.448H50.7493C50.8417 45.2831 50.9289 45.1182 51.0149 44.9468L51.3793 44.2924H51.8964L50.9995 45.7726L51.9721 47.28H51.4294L50.9944 46.5815C50.8968 46.3997 50.7878 46.2192 50.6787 46.0478H50.6518C50.5491 46.2179 50.4503 46.3997 50.3477 46.5815L49.9512 47.28H49.4289L50.4016 45.7232V45.7219Z" fill="white"/>
<path d="M53.068 44.2911L53.1116 44.6326H53.127C53.3926 44.4131 53.7249 44.2145 54.0675 44.2145C54.8285 44.2145 55.2416 44.8195 55.2416 45.7375C55.2416 46.7607 54.6386 47.3488 53.9585 47.3488C53.6929 47.3488 53.4106 47.2216 53.1437 47.0022L53.1539 47.5254V48.5382H52.6586V44.2911H53.068ZM54.7271 45.7427C54.7271 45.0831 54.5102 44.6377 53.9495 44.6377C53.6993 44.6377 53.4439 44.7806 53.1565 45.0506V46.6178C53.4221 46.8489 53.6839 46.9307 53.8789 46.9307C54.3691 46.9307 54.7271 46.4854 54.7271 45.7427Z" fill="white"/>
<path d="M55.9153 45.7868C55.9153 44.8182 56.562 44.2145 57.2472 44.2145C57.9966 44.2145 58.4213 44.765 58.4213 45.6168C58.4213 45.7258 58.4111 45.831 58.3995 45.9024H56.4106C56.444 46.5412 56.8289 46.9476 57.3884 46.9476C57.6771 46.9476 57.9106 46.8593 58.1275 46.7113L58.3071 47.0411C58.0466 47.2112 57.731 47.3488 57.3293 47.3488C56.5466 47.3488 55.9153 46.771 55.9153 45.7868ZM57.9863 45.5401C57.9863 44.9403 57.7143 44.6157 57.2524 44.6157C56.8328 44.6157 56.4645 44.9572 56.4055 45.5401H57.9876H57.9863Z" fill="white"/>
<path d="M59.6634 44.2911L59.7071 44.8364H59.7225C59.929 44.4573 60.228 44.2145 60.5591 44.2145C60.6912 44.2145 60.7823 44.23 60.8747 44.2807L60.7823 44.7208C60.6835 44.6819 60.6143 44.6715 60.4936 44.6715C60.2485 44.6715 59.9444 44.8481 59.7494 45.3597V47.2787H59.2541V44.2911H59.6634Z" fill="white"/>
<path d="M61.5599 46.3542V44.6988H61.1185V44.3183L61.5805 44.2911L61.6395 43.4497H62.0527V44.2911H62.8508V44.6988H62.0527V46.3659C62.0527 46.7347 62.1669 46.9437 62.5082 46.9437C62.6121 46.9437 62.7482 46.9048 62.8457 46.8658L62.9432 47.2398C62.7751 47.2956 62.5788 47.3501 62.4004 47.3501C61.7691 47.3501 61.5587 46.9489 61.5587 46.3542H61.5599Z" fill="white"/>
<path d="M64.7101 46.7503L65.0142 46.4036C65.2965 46.7061 65.6994 46.9048 66.1126 46.9048C66.6348 46.9048 66.9492 46.6412 66.9492 46.2452C66.9492 45.8492 66.6618 45.6998 66.2858 45.5298L65.7097 45.2766C65.3401 45.1169 64.8987 44.8312 64.8987 44.243C64.8987 43.6211 65.4325 43.1705 66.1549 43.1705C66.6284 43.1705 67.0468 43.3744 67.329 43.6717L67.0634 43.9963C66.8183 43.7652 66.5258 43.6159 66.1549 43.6159C65.7046 43.6159 65.4107 43.847 65.4107 44.2106C65.4107 44.6001 65.7585 44.7494 66.069 44.8818L66.64 45.1298C67.1019 45.3337 67.4612 45.609 67.4612 46.2075C67.4612 46.845 66.939 47.3514 66.1075 47.3514C65.5416 47.3514 65.0578 47.1203 64.7101 46.7516V46.7503Z" fill="white"/>
<path d="M68.0835 45.7868C68.0835 44.791 68.7303 44.2145 69.454 44.2145C70.1777 44.2145 70.8231 44.7923 70.8231 45.7868C70.8231 46.7814 70.1777 47.3488 69.454 47.3488C68.7303 47.3488 68.0835 46.7762 68.0835 45.7868ZM70.3124 45.7868C70.3124 45.1 69.9647 44.6326 69.4527 44.6326C68.9407 44.6326 68.5994 45.1 68.5994 45.7868C68.5994 46.4737 68.942 46.9307 69.4527 46.9307C69.9634 46.9307 70.3124 46.4737 70.3124 45.7868Z" fill="white"/>
<path d="M71.7059 46.684V42.8992H72.2012V46.7165C72.2012 46.8697 72.2654 46.9307 72.3424 46.9307C72.3693 46.9307 72.3911 46.9307 72.4463 46.9204L72.5169 47.3047C72.4463 47.332 72.3655 47.3488 72.2282 47.3488C71.8586 47.3488 71.7059 47.1073 71.7059 46.6827V46.684Z" fill="white"/>
<path d="M73.3278 46.1829V44.2911H73.8219V46.1231C73.8219 46.6789 73.9848 46.9152 74.3762 46.9152C74.6803 46.9152 74.8933 46.7671 75.1743 46.4101V44.2924H75.6683V47.28H75.2551L75.2167 46.8126H75.2012C74.9228 47.1372 74.6302 47.3514 74.2222 47.3514C73.6024 47.3514 73.3253 46.945 73.3253 46.1855L73.3278 46.1829Z" fill="white"/>
<path d="M76.8578 46.3542V44.6988H76.4177V44.3183L76.8796 44.2911L76.9387 43.4497H77.3518V44.2911H78.15V44.6988H77.3518V46.3659C77.3518 46.7347 77.4648 46.9437 77.8074 46.9437C77.9113 46.9437 78.0473 46.9048 78.1448 46.8658L78.2423 47.2398C78.0743 47.2956 77.8779 47.3501 77.6996 47.3501C77.0683 47.3501 76.8565 46.9489 76.8565 46.3542H76.8578Z" fill="white"/>
<path d="M78.8454 43.3393C78.8454 43.1472 78.9814 43.0147 79.1765 43.0147C79.3715 43.0147 79.5088 43.1472 79.5088 43.3393C79.5088 43.5432 79.3728 43.6743 79.1765 43.6743C78.9802 43.6743 78.8454 43.5419 78.8454 43.3393ZM78.9276 44.2911H79.4216V47.2787H78.9276V44.2911Z" fill="white"/>
<path d="M80.307 45.7868C80.307 44.791 80.9537 44.2145 81.6774 44.2145C82.4011 44.2145 83.0465 44.7923 83.0465 45.7868C83.0465 46.7814 82.4011 47.3488 81.6774 47.3488C80.9537 47.3488 80.307 46.7762 80.307 45.7868ZM82.5358 45.7868C82.5358 45.1 82.1881 44.6326 81.6761 44.6326C81.1641 44.6326 80.8228 45.1 80.8228 45.7868C80.8228 46.4737 81.1654 46.9307 81.6761 46.9307C82.1868 46.9307 82.5358 46.4737 82.5358 45.7868Z" fill="white"/>
<path d="M83.9293 44.2911H84.3374L84.381 44.7208H84.3964C84.68 44.4404 84.9841 44.2145 85.3857 44.2145C86.0055 44.2145 86.2878 44.6209 86.2878 45.3856V47.2774H85.7925V45.4506C85.7925 44.8896 85.6244 44.6533 85.233 44.6533C84.9302 44.6533 84.7223 44.8078 84.4233 45.1091V47.2761H83.928V44.2885L83.9293 44.2911Z" fill="white"/>
<path d="M87.0269 46.9372L87.2707 46.6061C87.526 46.8152 87.7929 46.958 88.1471 46.958C88.5385 46.958 88.7284 46.749 88.7284 46.4906C88.7284 46.1829 88.3806 46.0504 88.0534 45.9245C87.6402 45.77 87.1898 45.5661 87.1898 45.061C87.1898 44.5884 87.5697 44.2145 88.2113 44.2145C88.5757 44.2145 88.8965 44.369 89.1249 44.5495L88.8862 44.8741C88.6847 44.7195 88.4781 44.6105 88.2164 44.6105C87.8417 44.6105 87.6685 44.8091 87.6685 45.039C87.6685 45.3246 87.9726 45.4298 88.3036 45.5557C88.7335 45.7206 89.2057 45.8959 89.2057 46.4633C89.2057 46.9476 88.8246 47.3488 88.1291 47.3488C87.7108 47.3488 87.3079 47.1722 87.0256 46.9372H87.0269Z" fill="white"/>
<path d="M91.4166 44.6988H91.015V44.3183L91.4166 44.2911V43.8133C91.4166 43.2082 91.6886 42.8291 92.2763 42.8291C92.4559 42.8291 92.6343 42.8667 92.7703 42.9277L92.6625 43.3069C92.5548 43.2575 92.4341 43.2303 92.3302 43.2303C92.0479 43.2303 91.9119 43.4341 91.9119 43.8185V44.2911H92.5368V44.6988H91.9119V47.2787H91.4166V44.6988Z" fill="white"/>
<path d="M92.9269 45.7868C92.9269 44.791 93.5736 44.2145 94.2973 44.2145C95.021 44.2145 95.6664 44.7923 95.6664 45.7868C95.6664 46.7814 95.021 47.3488 94.2973 47.3488C93.5736 47.3488 92.9269 46.7762 92.9269 45.7868ZM95.157 45.7868C95.157 45.1 94.8093 44.6326 94.2973 44.6326C93.7853 44.6326 93.444 45.1 93.444 45.7868C93.444 46.4737 93.7866 46.9307 94.2973 46.9307C94.808 46.9307 95.157 46.4737 95.157 45.7868Z" fill="white"/>
<path d="M96.9586 44.2911L97.0022 44.8364H97.0176C97.2242 44.4573 97.5232 44.2145 97.8542 44.2145C97.9864 44.2145 98.0775 44.23 98.1699 44.2807L98.0775 44.7208C97.9787 44.6819 97.9094 44.6715 97.7888 44.6715C97.5437 44.6715 97.2396 44.8481 97.0445 45.3597V47.2787H96.5492V44.2911H96.9586Z" fill="white"/>
<path d="M99.9073 45.248C99.9073 43.9548 100.608 43.1679 101.609 43.1679C102.61 43.1679 103.312 43.9548 103.312 45.248C103.312 46.5412 102.61 47.3488 101.609 47.3488C100.608 47.3488 99.9073 46.5412 99.9073 45.248ZM102.794 45.248C102.794 44.2352 102.321 43.6133 101.609 43.6133C100.897 43.6133 100.424 44.2352 100.424 45.248C100.424 46.2608 100.893 46.9035 101.609 46.9035C102.325 46.9035 102.794 46.2543 102.794 45.248Z" fill="white"/>
<path d="M104.232 44.2911H104.64L104.683 44.7208H104.699C104.982 44.4404 105.286 44.2145 105.688 44.2145C106.308 44.2145 106.59 44.6209 106.59 45.3856V47.2774H106.095V45.4506C106.095 44.8896 105.927 44.6533 105.535 44.6533C105.232 44.6533 105.025 44.8078 104.726 45.1091V47.2761H104.23V44.2885L104.232 44.2911Z" fill="white"/>
<path d="M107.66 46.684V42.8992H108.155V46.7165C108.155 46.8697 108.22 46.9307 108.297 46.9307C108.324 46.9307 108.345 46.9307 108.401 46.9204L108.471 47.3047C108.401 47.332 108.32 47.3488 108.182 47.3488C107.813 47.3488 107.66 47.1073 107.66 46.6827V46.684Z" fill="white"/>
<path d="M109.236 43.3393C109.236 43.1472 109.372 43.0147 109.567 43.0147C109.762 43.0147 109.899 43.1472 109.899 43.3393C109.899 43.5432 109.763 43.6743 109.567 43.6743C109.371 43.6743 109.236 43.5419 109.236 43.3393ZM109.317 44.2911H109.812V47.2787H109.317V44.2911Z" fill="white"/>
<path d="M110.921 44.2911H111.327L111.371 44.7208H111.386C111.67 44.4404 111.974 44.2145 112.376 44.2145C112.996 44.2145 113.278 44.6209 113.278 45.3856V47.2774H112.783V45.4506C112.783 44.8896 112.614 44.6533 112.223 44.6533C111.918 44.6533 111.712 44.8078 111.412 45.1091V47.2761H110.918V44.2885L110.921 44.2911Z" fill="white"/>
<path d="M114.123 45.7868C114.123 44.8182 114.77 44.2145 115.455 44.2145C116.205 44.2145 116.629 44.765 116.629 45.6168C116.629 45.7258 116.619 45.831 116.608 45.9024H114.619C114.652 46.5412 115.037 46.9476 115.597 46.9476C115.885 46.9476 116.119 46.8593 116.336 46.7113L116.515 47.0411C116.255 47.2112 115.939 47.3488 115.537 47.3488C114.755 47.3488 114.123 46.771 114.123 45.7868ZM116.196 45.5401C116.196 44.9403 115.924 44.6157 115.462 44.6157C115.042 44.6157 114.674 44.9572 114.615 45.5401H116.197H116.196Z" fill="white"/>
<path d="M118.547 46.7503L118.851 46.4036C119.133 46.7061 119.536 46.9048 119.949 46.9048C120.471 46.9048 120.786 46.6412 120.786 46.2452C120.786 45.8492 120.498 45.6998 120.122 45.5298L119.546 45.2766C119.177 45.1169 118.735 44.8312 118.735 44.243C118.735 43.6211 119.269 43.1705 119.991 43.1705C120.465 43.1705 120.883 43.3744 121.165 43.6717L120.9 43.9963C120.655 43.7652 120.362 43.6159 119.991 43.6159C119.541 43.6159 119.247 43.847 119.247 44.2106C119.247 44.6001 119.595 44.7494 119.905 44.8818L120.476 45.1298C120.938 45.3337 121.298 45.609 121.298 46.2075C121.298 46.845 120.775 47.3514 119.944 47.3514C119.378 47.3514 118.894 47.1203 118.547 46.7516V46.7503Z" fill="white"/>
<path d="M121.958 46.5023C121.958 45.8531 122.518 45.5285 123.774 45.3856C123.774 45.0013 123.648 44.6326 123.166 44.6326C122.823 44.6326 122.514 44.7923 122.281 44.952L122.084 44.6053C122.356 44.4287 122.775 44.2145 123.248 44.2145C123.965 44.2145 124.269 44.704 124.269 45.4415V47.2787H123.863L123.819 46.9217H123.804C123.52 47.158 123.189 47.3501 122.825 47.3501C122.331 47.3501 121.96 47.0424 121.96 46.5036L121.958 46.5023ZM123.774 46.5516V45.7154C122.78 45.8362 122.442 46.0842 122.442 46.4685C122.442 46.81 122.672 46.9476 122.964 46.9476C123.257 46.9476 123.487 46.81 123.775 46.5516H123.774Z" fill="white"/>
<path d="M125.397 44.6988H124.996V44.3183L125.397 44.2911V43.8133C125.397 43.2082 125.669 42.8291 126.257 42.8291C126.437 42.8291 126.615 42.8667 126.751 42.9277L126.643 43.3069C126.535 43.2575 126.415 43.2303 126.311 43.2303C126.029 43.2303 125.893 43.4341 125.893 43.8185V44.2911H126.518V44.6988H125.893V47.2787H125.397V44.6988Z" fill="white"/>
<path d="M126.908 45.7868C126.908 44.8182 127.554 44.2145 128.24 44.2145C128.989 44.2145 129.414 44.765 129.414 45.6168C129.414 45.7258 129.403 45.831 129.392 45.9024H127.403C127.436 46.5412 127.821 46.9476 128.381 46.9476C128.669 46.9476 128.903 46.8593 129.12 46.7113L129.299 47.0411C129.039 47.2112 128.723 47.3488 128.322 47.3488C127.539 47.3488 126.908 46.771 126.908 45.7868ZM128.979 45.5401C128.979 44.9403 128.707 44.6157 128.245 44.6157C127.825 44.6157 127.457 44.9572 127.398 45.5401H128.98H128.979Z" fill="white"/>
<path d="M130.276 46.3542V44.6988H129.834V44.3183L130.296 44.2911L130.355 43.4497H130.769V44.2911H131.567V44.6988H130.769V46.3659C130.769 46.7347 130.883 46.9437 131.224 46.9437C131.328 46.9437 131.464 46.9048 131.562 46.8658L131.659 47.2398C131.491 47.2956 131.295 47.3501 131.116 47.3501C130.485 47.3501 130.275 46.9489 130.275 46.3542H130.276Z" fill="white"/>
<path d="M132.048 48.5044L132.145 48.1019C132.204 48.124 132.292 48.1512 132.369 48.1512C132.706 48.1512 132.918 47.876 133.037 47.5072L133.103 47.2813L131.918 44.2885H132.435L133.039 45.9504C133.126 46.2088 133.23 46.5166 133.322 46.7866H133.349C133.431 46.5166 133.517 46.214 133.599 45.9504L134.127 44.2885H134.612L133.497 47.5228C133.295 48.111 132.986 48.5628 132.398 48.5628C132.256 48.5628 132.143 48.5408 132.051 48.5018L132.048 48.5044Z" fill="white"/>
<path d="M136.425 46.5023C136.425 45.8531 136.984 45.5285 138.241 45.3856C138.241 45.0013 138.115 44.6326 137.632 44.6326C137.29 44.6326 136.98 44.7923 136.747 44.952L136.551 44.6053C136.823 44.4287 137.241 44.2145 137.714 44.2145C138.432 44.2145 138.736 44.704 138.736 45.4415V47.2787H138.329L138.285 46.9217H138.27C137.986 47.158 137.655 47.3501 137.291 47.3501C136.797 47.3501 136.426 47.0424 136.426 46.5036L136.425 46.5023ZM138.241 46.5516V45.7154C137.246 45.8362 136.909 46.0842 136.909 46.4685C136.909 46.81 137.138 46.9476 137.431 46.9476C137.723 46.9476 137.953 46.81 138.242 46.5516H138.241Z" fill="white"/>
<path d="M139.782 44.2911H140.19L140.233 44.7208H140.249C140.532 44.4404 140.836 44.2145 141.238 44.2145C141.858 44.2145 142.14 44.6209 142.14 45.3856V47.2774H141.645V45.4506C141.645 44.8896 141.477 44.6533 141.085 44.6533C140.782 44.6533 140.575 44.8078 140.276 45.1091V47.2761H139.78V44.2885L139.782 44.2911Z" fill="white"/>
<path d="M143 45.7868C143 44.8182 143.603 44.2145 144.277 44.2145C144.624 44.2145 144.848 44.3469 145.108 44.5663L145.086 44.0496V42.9005H145.575V47.2787H145.173L145.13 46.9268H145.113C144.88 47.158 144.57 47.3501 144.216 47.3501C143.477 47.3501 142.998 46.784 142.998 45.7881L143 45.7868ZM145.086 46.5191V44.952C144.831 44.726 144.608 44.639 144.362 44.639C143.884 44.639 143.509 45.1013 143.509 45.7829C143.509 46.5036 143.803 46.932 144.325 46.932C144.597 46.932 144.836 46.7944 145.087 46.5191H145.086Z" fill="white"/>
<path d="M147.769 46.7503L148.073 46.4036C148.356 46.7061 148.759 46.9048 149.172 46.9048C149.694 46.9048 150.008 46.6412 150.008 46.2452C150.008 45.8492 149.721 45.6998 149.345 45.5298L148.769 45.2766C148.399 45.1169 147.958 44.8312 147.958 44.243C147.958 43.6211 148.492 43.1705 149.214 43.1705C149.688 43.1705 150.106 43.3744 150.388 43.6717L150.123 43.9963C149.878 43.7652 149.585 43.6159 149.214 43.6159C148.764 43.6159 148.47 43.847 148.47 44.2106C148.47 44.6001 148.818 44.7494 149.128 44.8818L149.699 45.1298C150.161 45.3337 150.52 45.609 150.52 46.2075C150.52 46.845 149.998 47.3514 149.167 47.3514C148.601 47.3514 148.117 47.1203 147.769 46.7516V46.7503Z" fill="white"/>
<path d="M151.143 45.7868C151.143 44.8182 151.789 44.2145 152.475 44.2145C153.224 44.2145 153.649 44.765 153.649 45.6168C153.649 45.7258 153.638 45.831 153.627 45.9024H151.638C151.671 46.5412 152.056 46.9476 152.616 46.9476C152.905 46.9476 153.138 46.8593 153.355 46.7113L153.535 47.0411C153.274 47.2112 152.958 47.3488 152.557 47.3488C151.774 47.3488 151.143 46.771 151.143 45.7868ZM153.214 45.5401C153.214 44.9403 152.942 44.6157 152.48 44.6157C152.06 44.6157 151.692 44.9572 151.633 45.5401H153.215H153.214Z" fill="white"/>
<path d="M154.261 45.7868C154.261 44.791 154.931 44.2145 155.685 44.2145C156.071 44.2145 156.337 44.3794 156.55 44.5663L156.295 44.8961C156.12 44.7416 155.942 44.6326 155.708 44.6326C155.169 44.6326 154.778 45.1 154.778 45.7868C154.778 46.4737 155.147 46.9307 155.692 46.9307C155.964 46.9307 156.202 46.8048 156.387 46.6334L156.604 46.9684C156.338 47.2099 156.001 47.3475 155.647 47.3475C154.864 47.3475 154.261 46.7749 154.261 45.7855V45.7868Z" fill="white"/>
<path d="M157.32 46.1829V44.2911H157.814V46.1231C157.814 46.6789 157.977 46.9152 158.368 46.9152C158.672 46.9152 158.885 46.7671 159.166 46.4101V44.2924H159.66V47.28H159.247L159.209 46.8126H159.193C158.915 47.1372 158.622 47.3514 158.214 47.3514C157.594 47.3514 157.317 46.945 157.317 46.1855L157.32 46.1829Z" fill="white"/>
<path d="M161.171 44.2911L161.214 44.8364H161.23C161.436 44.4573 161.735 44.2145 162.066 44.2145C162.198 44.2145 162.29 44.23 162.382 44.2807L162.29 44.7208C162.191 44.6819 162.121 44.6715 162.001 44.6715C161.756 44.6715 161.452 44.8481 161.257 45.3597V47.2787H160.761V44.2911H161.171Z" fill="white"/>
<path d="M162.899 43.3393C162.899 43.1472 163.035 43.0147 163.23 43.0147C163.425 43.0147 163.562 43.1472 163.562 43.3393C163.562 43.5432 163.426 43.6743 163.23 43.6743C163.034 43.6743 162.899 43.5419 162.899 43.3393ZM162.98 44.2911H163.475V47.2787H162.98V44.2911Z" fill="white"/>
<path d="M164.671 46.3542V44.6988H164.23V44.3183L164.692 44.2911L164.751 43.4497H165.164V44.2911H165.962V44.6988H165.164V46.3659C165.164 46.7347 165.278 46.9437 165.619 46.9437C165.723 46.9437 165.859 46.9048 165.957 46.8658L166.054 47.2398C165.886 47.2956 165.69 47.3501 165.512 47.3501C164.88 47.3501 164.67 46.9489 164.67 46.3542H164.671Z" fill="white"/>
<path d="M166.441 48.5044L166.538 48.1019C166.597 48.124 166.684 48.1512 166.761 48.1512C167.099 48.1512 167.311 47.876 167.43 47.5072L167.495 47.2813L166.311 44.2885H166.827L167.43 45.9504C167.517 46.2088 167.621 46.5166 167.713 46.7866H167.74C167.821 46.5166 167.909 46.214 167.989 45.9504L168.517 44.2885H169L167.887 47.5228C167.685 48.111 167.376 48.5628 166.788 48.5628C166.646 48.5628 166.533 48.5408 166.441 48.5018V48.5044Z" fill="white"/>
<path d="M0.0625603 1.38888L7.23288 21.4701C7.88729 23.3035 9.60673 24.524 11.5328 24.524H39.4955C40.54 24.524 40.9108 23.1243 40.0062 22.5958L1.53435 0.142405C0.709275 -0.339305 -0.259512 0.48259 0.0638447 1.38888H0.0625603Z" fill="#347BF7"/>
<path d="M23.5047 39.3258L40.0485 29.754C40.957 29.2281 40.5887 27.8245 39.5416 27.8245L14.0401 27.8193C12.8942 27.8193 12.3142 29.2164 13.1175 30.0435L21.9187 39.1051C22.3357 39.5349 22.9863 39.6258 23.5034 39.3271L23.5047 39.3258Z" fill="#85B0FA"/>
<path d="M7.15974 31.821L0.379504 50.487C0.0227844 51.4712 1.07498 52.3684 1.97319 51.8464L17.9704 42.5264C18.8532 42.0123 19.0162 40.7918 18.3002 40.0582L9.71323 31.2614C8.91639 30.4447 7.54982 30.7447 7.15846 31.8223L7.15974 31.821Z" fill="#AECAFC"/>
</svg>
