<svg width="20" height="15" viewBox="0 0 20 15" fill="none" xmlns="http://www.w3.org/2000/svg">
<path d="M19.8 3.25158C19.8 3.25158 19.6 1.78006 19 1.13924C18.2444 0.28481 17.3778 0.28481 17 0.237342C14.2 0 10 0 10 0C10 0 5.8 0 3 0.213608C2.6 0.261076 1.75556 0.261076 1 1.11551C0.4 1.75633 0.2 3.22785 0.2 3.22785C0.2 3.22785 0 4.96044 0 6.69304V8.30696C0 10.0396 0.2 11.7722 0.2 11.7722C0.2 11.7722 0.4 13.2437 1 13.8845C1.75556 14.7389 2.75556 14.7152 3.2 14.7864C4.8 14.9525 10 15 10 15C10 15 14.2 15 17 14.7864C17.4 14.7389 18.2444 14.7389 19 13.8845C19.6 13.2437 19.8 11.7722 19.8 11.7722C19.8 11.7722 20 10.0396 20 8.3307V6.71677C20 4.96044 19.8 3.25158 19.8 3.25158ZM7.93333 10.2769V4.27215L13.3333 7.28639L7.93333 10.2769Z" fill="black"/>
</svg>
