<svg width="22" height="22" viewBox="0 0 22 22" fill="none" xmlns="http://www.w3.org/2000/svg">
<path d="M2.02673 0.587603L5.03172 9.0835C5.30598 9.85916 6.02657 10.3755 6.83375 10.3755H18.5526C18.9903 10.3755 19.1457 9.78335 18.7666 9.55977L2.64354 0.0602484C2.29776 -0.143552 1.89121 0.204173 2.02673 0.587603Z" fill="#347BF7"/>
<path d="M11.851 16.6379L18.7843 12.5882C19.1651 12.3657 19.0107 11.7719 18.5719 11.7719L7.88453 11.7697C7.40431 11.7697 7.16124 12.3608 7.49788 12.7107L11.1864 16.5445C11.3611 16.7263 11.6343 16.7642 11.851 16.6379Z" fill="#85B0FA"/>
<path d="M5.00107 13.4627L2.15956 21.3599C2.01006 21.7763 2.45102 22.1559 2.82745 21.935L9.53168 17.992C9.90166 17.7744 9.96995 17.2581 9.66988 16.9477L6.07121 13.226C5.73726 12.8805 5.16509 13.0068 5.00107 13.4627Z" fill="#AECAFC"/>
</svg>
