<svg width="70" height="70" viewBox="0 0 70 70" fill="none" xmlns="http://www.w3.org/2000/svg">
<path d="M35.1167 52.9066C25.2257 52.9066 17.2101 44.8872 17.2101 35C17.2101 25.1128 25.2296 17.0934 35.1167 17.0934" fill="#347BF7"/>
<path d="M70 70V35H52.9105C52.9105 44.8521 44.9533 52.8444 35.1167 52.9066L35 70H70Z" fill="#347BF7"/>
<path d="M70 0H35V17.0895C44.8521 17.0895 52.8444 25.6112 52.9066 35.4478L70 35V0Z" fill="#347BF7"/>
<path d="M0 35.0039V70H35C15.6732 70 0 54.3307 0 35.0039Z" fill="#347BF7"/>
<path d="M34.9961 0.00389105H0V35.0039C0 15.677 15.6654 0.0077821 34.9961 0.00389105Z" fill="#347BF7"/>
</svg>
