<svg width="10" height="10" viewBox="0 0 10 10" fill="none" xmlns="http://www.w3.org/2000/svg">
<path d="M4 5.00001C4.00588 4.80271 4.08227 4.6336 4.24094 4.4814L8.81293 0.191662C8.94809 0.067649 9.10676 5.22841e-06 9.30068 5.24537e-06C9.69442 5.27979e-06 10 0.293128 10 0.670806C10 0.851189 9.9236 1.0203 9.78844 1.14995L5.67483 5.00001L9.78844 8.85006C9.9236 8.97971 10 9.14319 10 9.32921C10 9.70688 9.69442 10 9.30068 10C9.11263 10 8.94809 9.93236 8.81293 9.80835L4.24094 5.51297C4.0764 5.36641 4 5.1973 4 5.00001Z" fill="#AAAAAA"/>
<path d="M0 5C0.00587661 4.80271 0.0822726 4.6336 0.240941 4.4814L4.81293 0.191657C4.94809 0.0676437 5.10676 -1.69528e-08 5.30069 0C5.69442 3.4422e-08 6 0.293123 6 0.670801C6 0.851184 5.9236 1.02029 5.78844 1.14994L1.67483 5L5.78844 8.85006C5.9236 8.97971 6 9.14318 6 9.3292C6 9.70688 5.69442 10 5.30068 10C5.11263 10 4.94809 9.93236 4.81293 9.80834L0.24094 5.51296C0.076396 5.3664 -1.86543e-08 5.19729 0 5Z" fill="#AAAAAA"/>
</svg>
