<svg width="26" height="26" viewBox="0 0 26 26" fill="none" xmlns="http://www.w3.org/2000/svg">
<rect width="26" height="26" rx="2" fill="#347BF7"/>
<path d="M18.8821 8.98658C18.6961 8.69084 18.3241 8.5 17.9341 8.5C17.67 8.5 17.4233 8.58459 17.2185 8.74498L17.2065 8.75378L11.0938 14.4472L8.50164 12.7459L8.48439 12.7344L8.46638 12.7249C8.31038 12.645 8.13562 12.6024 7.96086 12.6024C7.61735 12.6024 7.29633 12.7614 7.12307 13.0173C6.95282 13.2683 6.95957 13.5674 7.14108 13.8192L7.15083 13.8321L9.98745 17.0046C10.2687 17.32 10.7007 17.5 11.1718 17.5C11.639 17.5 12.0688 17.322 12.3501 17.0114L18.7966 9.89544L18.8063 9.88462C19.0344 9.60918 19.0629 9.27352 18.8821 8.98725V8.98658Z" fill="white"/>
</svg>
