<svg width="76" height="76" viewBox="0 0 76 76" fill="none" xmlns="http://www.w3.org/2000/svg">
<path d="M56.1777 23.9846L49.0962 31.0681C52.2783 36.1231 51.6765 42.8933 47.2826 47.2885C42.8886 51.6838 36.1204 52.2858 31.0669 49.1027L20.2592 59.8476C19.5173 59.2456 18.7918 58.6024 18.0911 57.9097C7.11856 46.9339 7.11856 29.0643 18.0911 18.0885C24.0514 12.1265 32.0397 9.42171 39.8549 9.93298L48.3625 1.43109C35.5433 -2.18077 21.1908 1.04351 11.1168 11.1122C-3.70561 25.939 -3.70561 50.0593 11.1168 64.886C14.2825 68.0526 17.8768 70.5347 21.7102 72.3489L33.5318 60.5238C40.8029 61.9669 48.6346 59.8888 54.2569 54.2649C62.5089 46.0103 63.1437 32.9813 56.1777 23.9846Z" fill="#347BF7"/>
<path d="M64.8832 11.1122C61.7258 7.95387 58.148 5.48 54.3311 3.66582L42.4764 15.5239C35.2218 14.0973 27.4149 16.1836 21.8091 21.7911C13.557 30.0456 12.9222 43.0747 19.8883 52.0714L26.9697 44.9878C23.7876 39.9329 24.3894 33.1627 28.7834 28.7674C33.1774 24.3722 39.9455 23.7702 44.999 26.9532L55.782 16.1671C56.5157 16.7609 57.2246 17.4041 57.9006 18.0885C68.8732 29.0643 68.8732 46.9339 57.9006 57.9097C51.9568 63.8553 43.985 66.5765 36.1864 66.0817L27.687 74.5836C40.4896 78.1707 54.8257 74.9465 64.8832 64.886C79.7056 50.0593 79.7056 25.939 64.8832 11.1122Z" fill="#347BF7"/>
</svg>
