<svg width="77" height="88" viewBox="0 0 77 88" fill="none" xmlns="http://www.w3.org/2000/svg">
<g clip-path="url(#clip0_531_5996)">
<path d="M212.332 69.3684V30.8034H223.997V34.0422H224.353C227.626 31.4516 231.513 30.1552 236.018 30.1552C243.226 30.1552 246.83 33.5368 246.83 40.3024V69.3662H234.739V43.684C234.739 42.1964 234.394 41.1549 233.708 40.5529C233.02 39.953 231.823 39.6541 230.116 39.6541C228.409 39.6541 226.488 40.0629 224.496 40.8781V69.3662H212.334L212.332 69.3684Z" fill="#85B0FA"/>
<path d="M163.868 69.3684L153.484 52.2382V69.3684H141.393V23.6863H153.484V47.9204L164.011 32.302H176.033L164.226 49.2872L176.673 69.3684H163.868Z" fill="#347BF7"/>
<path d="M273.112 69.3684L262.728 52.2382V69.3684H250.637V23.6863H262.728V47.9204L273.255 32.302H285.277L273.47 49.2872L285.918 69.3684H273.112Z" fill="#85B0FA"/>
<path d="M100.72 15.1959L79.1509 69.3684H91.2701L100.72 45.633V69.3684H112.84V15.1959H100.72Z" fill="#347BF7"/>
<path d="M192.597 17.9887H180.478V69.3684H192.597V17.9887Z" fill="#85B0FA"/>
<path d="M128.766 69.3684H116.646V44.8706C116.646 33.1897 126.038 23.6863 137.582 23.6863V35.9495C132.72 35.9495 128.766 39.9508 128.766 44.8706V69.3684Z" fill="#347BF7"/>
<path d="M208.525 36.5032H196.406V69.3684H208.525V36.5032Z" fill="#85B0FA"/>
<path d="M208.475 17.9887H196.451V30.1552H208.475V17.9887Z" fill="#85B0FA"/>
<path d="M79.1509 73.1763H83.0422V73.9102H80.0065V76.0526H82.5645V76.7865H80.0065V79.2717H83.1443V80.0078H79.1509V73.1763Z" fill="#CCCBCB"/>
<path d="M85.2941 77.3754L83.7762 74.9562H84.6774L85.3484 76.0636C85.5047 76.3514 85.6806 76.6305 85.8457 76.9118H85.8826C86.0389 76.6327 86.1866 76.3536 86.3321 76.0636L86.9488 74.9562H87.8239L86.306 77.4611L87.952 80.0122H87.0335L86.2973 78.83C86.1323 78.5224 85.9477 78.217 85.7631 77.9269H85.7175C85.5438 78.2148 85.3766 78.5224 85.2029 78.83L84.5319 80.0122H83.6481L85.2941 77.3776V77.3754Z" fill="#CCCBCB"/>
<path d="M89.8065 74.9539L89.8803 75.5318H89.9064C90.3559 75.1605 90.9183 74.8243 91.4981 74.8243C92.7858 74.8243 93.485 75.8483 93.485 77.4018C93.485 79.1332 92.4644 80.1286 91.3135 80.1286C90.864 80.1286 90.3863 79.9133 89.9346 79.5419L89.952 80.4275V82.1414H89.1138V74.9539H89.8065ZM92.6143 77.4105C92.6143 76.2943 92.2473 75.5406 91.2983 75.5406C90.8749 75.5406 90.4427 75.7823 89.9563 76.2394V78.8915C90.4058 79.2826 90.8488 79.4211 91.1789 79.4211C92.0084 79.4211 92.6143 78.6674 92.6143 77.4105Z" fill="#CCCBCB"/>
<path d="M94.6251 77.4853C94.6251 75.8461 95.7195 74.8243 96.8791 74.8243C98.1472 74.8243 98.866 75.756 98.866 77.1974C98.866 77.382 98.8486 77.56 98.8291 77.6808H95.4633C95.5197 78.7619 96.1712 79.4497 97.118 79.4497C97.6065 79.4497 98.0018 79.3002 98.3687 79.0497L98.6728 79.6079C98.2319 79.8957 97.6977 80.1286 97.0181 80.1286C95.6934 80.1286 94.6251 79.1508 94.6251 77.4853ZM98.1299 77.0678C98.1299 76.0526 97.6695 75.5033 96.8878 75.5033C96.1777 75.5033 95.5545 76.0812 95.4546 77.0678H98.132H98.1299Z" fill="#CCCBCB"/>
<path d="M100.968 74.9539L101.042 75.8768H101.068C101.418 75.2352 101.924 74.8243 102.484 74.8243C102.707 74.8243 102.862 74.8507 103.018 74.9364L102.862 75.6813C102.694 75.6153 102.577 75.5978 102.373 75.5978C101.958 75.5978 101.444 75.8966 101.114 76.7623V80.01H100.275V74.9539H100.968Z" fill="#CCCBCB"/>
<path d="M104.178 78.4455V75.6439H103.431V75.0001L104.212 74.9539L104.312 73.5301H105.011V74.9539H106.362V75.6439H105.011V78.4652C105.011 79.0893 105.205 79.4431 105.782 79.4431C105.958 79.4431 106.188 79.3771 106.353 79.3112L106.518 79.944C106.234 80.0385 105.902 80.1308 105.6 80.1308C104.531 80.1308 104.175 79.4519 104.175 78.4455H104.178Z" fill="#CCCBCB"/>
<path d="M109.509 79.1157L110.023 78.529C110.501 79.0409 111.183 79.3771 111.882 79.3771C112.766 79.3771 113.298 78.9311 113.298 78.2609C113.298 77.5907 112.811 77.338 112.175 77.0502L111.2 76.6217C110.575 76.3514 109.828 75.868 109.828 74.8727C109.828 73.8201 110.731 73.0577 111.954 73.0577C112.755 73.0577 113.463 73.4026 113.941 73.9058L113.491 74.4552C113.076 74.064 112.581 73.8113 111.954 73.8113C111.191 73.8113 110.694 74.2025 110.694 74.8177C110.694 75.4769 111.283 75.7296 111.808 75.9537L112.775 76.3734C113.556 76.7184 114.164 77.1842 114.164 78.1972C114.164 79.2761 113.28 80.133 111.873 80.133C110.916 80.133 110.097 79.7419 109.509 79.1179V79.1157Z" fill="#CCCBCB"/>
<path d="M115.217 77.4853C115.217 75.7999 116.312 74.8243 117.537 74.8243C118.761 74.8243 119.854 75.8021 119.854 77.4853C119.854 79.1684 118.761 80.1286 117.537 80.1286C116.312 80.1286 115.217 79.1596 115.217 77.4853ZM118.989 77.4853C118.989 76.3229 118.401 75.5318 117.534 75.5318C116.668 75.5318 116.09 76.3229 116.09 77.4853C116.09 78.6476 116.67 79.4211 117.534 79.4211C118.399 79.4211 118.989 78.6476 118.989 77.4853Z" fill="#CCCBCB"/>
<path d="M121.348 79.0036V72.5984H122.186V79.0585C122.186 79.3178 122.294 79.4211 122.425 79.4211C122.47 79.4211 122.507 79.4211 122.601 79.4035L122.72 80.0539C122.601 80.1001 122.464 80.1286 122.231 80.1286C121.606 80.1286 121.348 79.7199 121.348 79.0014V79.0036Z" fill="#CCCBCB"/>
<path d="M124.092 78.1554V74.9539H124.928V78.0544C124.928 78.9948 125.204 79.3947 125.867 79.3947C126.381 79.3947 126.742 79.1442 127.217 78.54V74.9562H128.053V80.0122H127.354L127.289 79.2211H127.263C126.792 79.7704 126.296 80.133 125.606 80.133C124.557 80.133 124.088 79.4453 124.088 78.1598L124.092 78.1554Z" fill="#CCCBCB"/>
<path d="M130.066 78.4455V75.6439H129.321V75.0001L130.103 74.9539L130.203 73.5301H130.902V74.9539H132.253V75.6439H130.902V78.4652C130.902 79.0893 131.093 79.4431 131.673 79.4431C131.849 79.4431 132.079 79.3771 132.244 79.3112L132.409 79.944C132.125 80.0385 131.793 80.1308 131.491 80.1308C130.422 80.1308 130.064 79.4519 130.064 78.4455H130.066Z" fill="#CCCBCB"/>
<path d="M133.43 73.3433C133.43 73.0181 133.66 72.794 133.99 72.794C134.32 72.794 134.553 73.0181 134.553 73.3433C134.553 73.6883 134.322 73.9102 133.99 73.9102C133.658 73.9102 133.43 73.6861 133.43 73.3433ZM133.569 74.9539H134.405V80.01H133.569V74.9539Z" fill="#CCCBCB"/>
<path d="M135.903 77.4853C135.903 75.7999 136.998 74.8243 138.222 74.8243C139.447 74.8243 140.539 75.8021 140.539 77.4853C140.539 79.1684 139.447 80.1286 138.222 80.1286C136.998 80.1286 135.903 79.1596 135.903 77.4853ZM139.675 77.4853C139.675 76.3229 139.087 75.5318 138.22 75.5318C137.354 75.5318 136.776 76.3229 136.776 77.4853C136.776 78.6476 137.356 79.4211 138.22 79.4211C139.085 79.4211 139.675 78.6476 139.675 77.4853Z" fill="#CCCBCB"/>
<path d="M142.033 74.9539H142.724L142.798 75.6813H142.824C143.304 75.2066 143.818 74.8243 144.498 74.8243C145.547 74.8243 146.025 75.5121 146.025 76.8063V80.0078H145.186V76.9161C145.186 75.9669 144.902 75.567 144.24 75.567C143.727 75.567 143.375 75.8285 142.869 76.3383V80.0056H142.031V74.9496L142.033 74.9539Z" fill="#CCCBCB"/>
<path d="M147.275 79.4321L147.688 78.8718C148.12 79.2255 148.572 79.4672 149.171 79.4672C149.833 79.4672 150.155 79.1135 150.155 78.6762C150.155 78.1554 149.566 77.9313 149.013 77.7182C148.313 77.4567 147.551 77.1117 147.551 76.257C147.551 75.4571 148.194 74.8243 149.28 74.8243C149.896 74.8243 150.439 75.0858 150.826 75.3912L150.422 75.9405C150.081 75.6791 149.731 75.4945 149.288 75.4945C148.654 75.4945 148.361 75.8307 148.361 76.2196C148.361 76.703 148.876 76.881 149.436 77.0941C150.164 77.3732 150.963 77.6698 150.963 78.63C150.963 79.4496 150.318 80.1286 149.141 80.1286C148.433 80.1286 147.751 79.8298 147.273 79.4321H147.275Z" fill="#CCCBCB"/>
<path d="M154.704 75.6439H154.024V75.0001L154.704 74.9539V74.1453C154.704 73.1214 155.165 72.4798 156.159 72.4798C156.463 72.4798 156.765 72.5435 156.995 72.6468L156.813 73.2884C156.63 73.2049 156.426 73.1588 156.25 73.1588C155.773 73.1588 155.542 73.5037 155.542 74.1541V74.9539H156.6V75.6439H155.542V80.01H154.704V75.6439Z" fill="#CCCBCB"/>
<path d="M157.26 77.4853C157.26 75.7999 158.354 74.8243 159.579 74.8243C160.804 74.8243 161.896 75.8021 161.896 77.4853C161.896 79.1684 160.804 80.1286 159.579 80.1286C158.354 80.1286 157.26 79.1596 157.26 77.4853ZM161.034 77.4853C161.034 76.3229 160.446 75.5318 159.579 75.5318C158.713 75.5318 158.135 76.3229 158.135 77.4853C158.135 78.6476 158.715 79.4211 159.579 79.4211C160.443 79.4211 161.034 78.6476 161.034 77.4853Z" fill="#CCCBCB"/>
<path d="M164.083 74.9539L164.157 75.8768H164.183C164.532 75.2352 165.038 74.8243 165.599 74.8243C165.822 74.8243 165.976 74.8507 166.133 74.9364L165.976 75.6813C165.809 75.6153 165.692 75.5978 165.488 75.5978C165.073 75.5978 164.558 75.8966 164.228 76.7623V80.01H163.39V74.9539H164.083Z" fill="#CCCBCB"/>
<path d="M169.073 76.5734C169.073 74.3848 170.259 73.0533 171.952 73.0533C173.646 73.0533 174.834 74.3848 174.834 76.5734C174.834 78.7619 173.646 80.1286 171.952 80.1286C170.259 80.1286 169.073 78.7619 169.073 76.5734ZM173.959 76.5734C173.959 74.8595 173.158 73.807 171.952 73.807C170.747 73.807 169.948 74.8595 169.948 76.5734C169.948 78.2873 170.741 79.3749 171.952 79.3749C173.164 79.3749 173.959 78.2763 173.959 76.5734Z" fill="#CCCBCB"/>
<path d="M176.391 74.9539H177.082L177.155 75.6813H177.181C177.661 75.2066 178.176 74.8243 178.856 74.8243C179.905 74.8243 180.382 75.5121 180.382 76.8063V80.0078H179.544V76.9161C179.544 75.9669 179.26 75.567 178.597 75.567C178.085 75.567 177.733 75.8285 177.227 76.3383V80.0056H176.389V74.9496L176.391 74.9539Z" fill="#CCCBCB"/>
<path d="M182.193 79.0036V72.5984H183.031V79.0585C183.031 79.3178 183.14 79.4211 183.27 79.4211C183.316 79.4211 183.353 79.4211 183.446 79.4035L183.566 80.0539C183.446 80.1001 183.309 80.1286 183.077 80.1286C182.452 80.1286 182.193 79.7199 182.193 79.0014V79.0036Z" fill="#CCCBCB"/>
<path d="M184.86 73.3433C184.86 73.0181 185.09 72.794 185.42 72.794C185.75 72.794 185.983 73.0181 185.983 73.3433C185.983 73.6883 185.752 73.9102 185.42 73.9102C185.088 73.9102 184.86 73.6861 184.86 73.3433ZM184.997 74.9539H185.835V80.01H184.997V74.9539Z" fill="#CCCBCB"/>
<path d="M187.711 74.9539H188.399L188.473 75.6813H188.499C188.979 75.2066 189.494 74.8243 190.174 74.8243C191.222 74.8243 191.7 75.5121 191.7 76.8063V80.0078H190.862V76.9161C190.862 75.9669 190.577 75.567 189.915 75.567C189.398 75.567 189.051 75.8285 188.543 76.3383V80.0056H187.707V74.9496L187.711 74.9539Z" fill="#CCCBCB"/>
<path d="M193.131 77.4853C193.131 75.8461 194.226 74.8243 195.385 74.8243C196.653 74.8243 197.372 75.756 197.372 77.1974C197.372 77.382 197.355 77.56 197.335 77.6808H193.969C194.026 78.7619 194.677 79.4497 195.624 79.4497C196.113 79.4497 196.508 79.3002 196.875 79.0497L197.179 79.6079C196.738 79.8957 196.204 80.1286 195.524 80.1286C194.2 80.1286 193.131 79.1508 193.131 77.4853ZM196.638 77.0678C196.638 76.0526 196.178 75.5033 195.396 75.5033C194.686 75.5033 194.063 76.0812 193.963 77.0678H196.64H196.638Z" fill="#CCCBCB"/>
<path d="M200.616 79.1157L201.131 78.529C201.609 79.0409 202.291 79.3771 202.99 79.3771C203.874 79.3771 204.406 78.9311 204.406 78.2609C204.406 77.5907 203.919 77.338 203.283 77.0502L202.308 76.6217C201.683 76.3514 200.936 75.868 200.936 74.8727C200.936 73.8201 201.839 73.0577 203.061 73.0577C203.863 73.0577 204.571 73.4026 205.048 73.9058L204.599 74.4552C204.184 74.064 203.689 73.8113 203.061 73.8113C202.299 73.8113 201.802 74.2025 201.802 74.8177C201.802 75.4769 202.39 75.7296 202.916 75.9537L203.882 76.3734C204.664 76.7184 205.272 77.1842 205.272 78.1972C205.272 79.2761 204.388 80.133 202.981 80.133C202.023 80.133 201.205 79.7419 200.616 79.1179V79.1157Z" fill="#CCCBCB"/>
<path d="M206.39 78.696C206.39 77.5973 207.337 77.048 209.463 76.8063C209.463 76.1559 209.25 75.5318 208.434 75.5318C207.854 75.5318 207.331 75.8021 206.935 76.0724L206.603 75.4857C207.064 75.1869 207.771 74.8243 208.573 74.8243C209.787 74.8243 210.301 75.6527 210.301 76.9008V80.01H209.613L209.539 79.4057H209.513C209.033 79.8056 208.473 80.1308 207.856 80.1308C207.02 80.1308 206.393 79.61 206.393 78.6982L206.39 78.696ZM209.463 78.7795V77.3644C207.78 77.5688 207.209 77.9884 207.209 78.6388C207.209 79.2167 207.598 79.4497 208.093 79.4497C208.588 79.4497 208.977 79.2167 209.465 78.7795H209.463Z" fill="#CCCBCB"/>
<path d="M212.21 75.6439H211.53V75.0001L212.21 74.9539V74.1453C212.21 73.1214 212.67 72.4798 213.665 72.4798C213.969 72.4798 214.271 72.5435 214.501 72.6468L214.319 73.2884C214.136 73.2049 213.932 73.1588 213.756 73.1588C213.278 73.1588 213.048 73.5037 213.048 74.1541V74.9539H214.106V75.6439H213.048V80.01H212.21V75.6439Z" fill="#CCCBCB"/>
<path d="M214.766 77.4853C214.766 75.8461 215.86 74.8243 217.02 74.8243C218.288 74.8243 219.007 75.756 219.007 77.1974C219.007 77.382 218.989 77.56 218.97 77.6808H215.604C215.661 78.7619 216.312 79.4497 217.259 79.4497C217.747 79.4497 218.143 79.3002 218.51 79.0497L218.814 79.6079C218.373 79.8957 217.839 80.1286 217.159 80.1286C215.834 80.1286 214.766 79.1508 214.766 77.4853ZM218.271 77.0678C218.271 76.0526 217.81 75.5033 217.029 75.5033C216.318 75.5033 215.695 76.0812 215.595 77.0678H218.273H218.271Z" fill="#CCCBCB"/>
<path d="M220.466 78.4455V75.6439H219.719V75.0001L220.501 74.9539L220.601 73.5301H221.3V74.9539H222.651V75.6439H221.3V78.4652C221.3 79.0893 221.493 79.4431 222.071 79.4431C222.247 79.4431 222.477 79.3771 222.642 79.3112L222.807 79.944C222.523 80.0385 222.19 80.1308 221.888 80.1308C220.82 80.1308 220.464 79.4519 220.464 78.4455H220.466Z" fill="#CCCBCB"/>
<path d="M223.465 82.0842L223.63 81.4031C223.73 81.4404 223.878 81.4865 224.008 81.4865C224.579 81.4865 224.937 81.0207 225.139 80.3967L225.25 80.0144L223.246 74.9496H224.121L225.141 77.7621C225.289 78.1994 225.465 78.7201 225.621 79.1772H225.667C225.806 78.7201 225.951 78.2082 226.09 77.7621L226.983 74.9496H227.804L225.917 80.4231C225.576 81.4184 225.052 82.1831 224.058 82.1831C223.817 82.1831 223.626 82.1457 223.469 82.0798L223.465 82.0842Z" fill="#CCCBCB"/>
<path d="M230.872 78.696C230.872 77.5973 231.819 77.048 233.945 76.8063C233.945 76.1559 233.732 75.5318 232.915 75.5318C232.336 75.5318 231.812 75.8021 231.417 76.0724L231.085 75.4857C231.545 75.1869 232.253 74.8243 233.054 74.8243C234.268 74.8243 234.783 75.6527 234.783 76.9008V80.01H234.094L234.021 79.4057H233.995C233.515 79.8056 232.954 80.1308 232.338 80.1308C231.502 80.1308 230.874 79.61 230.874 78.6982L230.872 78.696ZM233.945 78.7795V77.3644C232.262 77.5688 231.691 77.9884 231.691 78.6388C231.691 79.2167 232.079 79.4497 232.574 79.4497C233.07 79.4497 233.458 79.2167 233.947 78.7795H233.945Z" fill="#CCCBCB"/>
<path d="M236.553 74.9539H237.243L237.317 75.6813H237.343C237.823 75.2066 238.338 74.8243 239.017 74.8243C240.066 74.8243 240.544 75.5121 240.544 76.8063V80.0078H239.706V76.9161C239.706 75.9669 239.421 75.567 238.759 75.567C238.246 75.567 237.895 75.8285 237.389 76.3383V80.0056H236.55V74.9496L236.553 74.9539Z" fill="#CCCBCB"/>
<path d="M241.999 77.4853C241.999 75.8461 243.019 74.8243 244.159 74.8243C244.748 74.8243 245.126 75.0484 245.567 75.4198L245.53 74.5453V72.6006H246.357V80.01H245.677L245.603 79.4145H245.575C245.18 79.8056 244.657 80.1308 244.057 80.1308C242.807 80.1308 241.997 79.1728 241.997 77.4875L241.999 77.4853ZM245.53 78.7245V76.0724C245.097 75.6901 244.72 75.5428 244.305 75.5428C243.495 75.5428 242.861 76.3251 242.861 77.4787C242.861 78.6982 243.358 79.4233 244.242 79.4233C244.702 79.4233 245.106 79.1904 245.532 78.7245H245.53Z" fill="#CCCBCB"/>
<path d="M250.07 79.1157L250.585 78.529C251.063 79.0409 251.744 79.3771 252.444 79.3771C253.328 79.3771 253.86 78.9311 253.86 78.2609C253.86 77.5907 253.373 77.338 252.737 77.0502L251.762 76.6217C251.136 76.3514 250.389 75.868 250.389 74.8727C250.389 73.8201 251.293 73.0577 252.515 73.0577C253.317 73.0577 254.025 73.4026 254.502 73.9058L254.053 74.4552C253.638 74.064 253.143 73.8113 252.515 73.8113C251.753 73.8113 251.256 74.2025 251.256 74.8177C251.256 75.4769 251.844 75.7296 252.37 75.9537L253.336 76.3734C254.118 76.7184 254.726 77.1842 254.726 78.1972C254.726 79.2761 253.842 80.133 252.435 80.133C251.477 80.133 250.659 79.7419 250.07 79.1179V79.1157Z" fill="#CCCBCB"/>
<path d="M255.779 77.4853C255.779 75.8461 256.874 74.8243 258.033 74.8243C259.301 74.8243 260.02 75.756 260.02 77.1974C260.02 77.382 260.003 77.56 259.983 77.6808H256.617C256.674 78.7619 257.325 79.4497 258.272 79.4497C258.761 79.4497 259.156 79.3002 259.523 79.0497L259.827 79.6079C259.386 79.8957 258.852 80.1286 258.172 80.1286C256.848 80.1286 255.779 79.1508 255.779 77.4853ZM259.284 77.0678C259.284 76.0526 258.824 75.5033 258.042 75.5033C257.332 75.5033 256.709 76.0812 256.609 77.0678H259.286H259.284Z" fill="#CCCBCB"/>
<path d="M261.056 77.4853C261.056 75.7999 262.189 74.8243 263.466 74.8243C264.12 74.8243 264.569 75.1034 264.93 75.4198L264.498 75.9779C264.202 75.7164 263.901 75.5318 263.505 75.5318C262.593 75.5318 261.931 76.3229 261.931 77.4853C261.931 78.6476 262.556 79.4211 263.477 79.4211C263.937 79.4211 264.341 79.2079 264.654 78.9179L265.021 79.4848C264.572 79.8935 264 80.1264 263.401 80.1264C262.077 80.1264 261.056 79.1574 261.056 77.4831V77.4853Z" fill="#CCCBCB"/>
<path d="M266.233 78.1554V74.9539H267.069V78.0544C267.069 78.9948 267.345 79.3947 268.007 79.3947C268.522 79.3947 268.882 79.1442 269.358 78.54V74.9562H270.194V80.0122H269.494L269.429 79.2211H269.403C268.932 79.7704 268.437 80.133 267.746 80.133C266.697 80.133 266.228 79.4453 266.228 78.1598L266.233 78.1554Z" fill="#CCCBCB"/>
<path d="M272.749 74.9539L272.823 75.8768H272.849C273.199 75.2352 273.705 74.8243 274.265 74.8243C274.489 74.8243 274.643 74.8507 274.799 74.9364L274.643 75.6813C274.476 75.6153 274.359 75.5978 274.154 75.5978C273.74 75.5978 273.225 75.8966 272.895 76.7623V80.01H272.057V74.9539H272.749Z" fill="#CCCBCB"/>
<path d="M275.674 73.3433C275.674 73.0181 275.905 72.794 276.235 72.794C276.565 72.794 276.797 73.0181 276.797 73.3433C276.797 73.6883 276.567 73.9102 276.235 73.9102C275.902 73.9102 275.674 73.6861 275.674 73.3433ZM275.811 74.9539H276.65V80.01H275.811V74.9539Z" fill="#CCCBCB"/>
<path d="M278.673 78.4455V75.6439H277.926V75.0001L278.708 74.9539L278.808 73.5301H279.507V74.9539H280.858V75.6439H279.507V78.4652C279.507 79.0893 279.7 79.4431 280.278 79.4431C280.454 79.4431 280.684 79.3771 280.849 79.3112L281.014 79.944C280.73 80.0385 280.398 80.1308 280.096 80.1308C279.027 80.1308 278.671 79.4519 278.671 78.4455H278.673Z" fill="#CCCBCB"/>
<path d="M281.668 82.0842L281.833 81.4031C281.933 81.4404 282.08 81.4865 282.211 81.4865C282.782 81.4865 283.14 81.0207 283.342 80.3967L283.453 80.0144L281.449 74.9496H282.321L283.342 77.7621C283.49 78.1994 283.666 78.7201 283.822 79.1772H283.868C284.004 78.7201 284.152 78.2082 284.289 77.7621L285.181 74.9496H286L284.115 80.4231C283.774 81.4184 283.251 82.1831 282.256 82.1831C282.015 82.1831 281.824 82.1457 281.668 82.0798V82.0842Z" fill="#CCCBCB"/>
<path d="M0.105871 2.35041L12.2403 36.334C13.3477 39.4366 16.2575 41.5021 19.517 41.5021H66.8385C68.6061 41.5021 69.2336 39.1334 67.7027 38.2391L2.59659 0.240993C1.20031 -0.574209 -0.439175 0.81669 0.108045 2.35041H0.105871Z" fill="#347BF7"/>
<path d="M39.7771 66.5514L67.7744 50.3529C69.3118 49.4629 68.6886 47.0877 66.9166 47.0877L23.7601 47.0789C21.8209 47.0789 20.8394 49.4432 22.1988 50.8429L37.0932 66.1779C37.7989 66.9052 38.8998 67.059 39.775 66.5536L39.7771 66.5514Z" fill="#85B0FA"/>
<path d="M12.1165 53.851L0.642237 85.4395C0.0385581 87.1051 1.8192 88.6234 3.33925 87.7401L30.4114 71.9678C31.9054 71.0977 32.1812 69.0322 30.9695 67.7907L16.4378 52.9039C15.0893 51.5218 12.7766 52.0294 12.1143 53.8532L12.1165 53.851Z" fill="#AECAFC"/>
</g>
<defs>
<clipPath id="clip0_531_5996">
<rect width="77" height="88" fill="white"/>
</clipPath>
</defs>
</svg>
