<svg width="16" height="20" viewBox="0 0 16 20" fill="none" xmlns="http://www.w3.org/2000/svg">
<path id="Vector" d="M8 13.7C8.9665 13.7 9.75 12.8941 9.75 11.9C9.75 10.9059 8.9665 10.1 8 10.1C7.0335 10.1 6.25 10.9059 6.25 11.9C6.25 12.8941 7.0335 13.7 8 13.7ZM8 13.7V16.1M1 7.7H15V16.7C15 17.6941 14.2165 18.5 13.25 18.5H2.75C1.7835 18.5 1 17.6941 1 16.7V7.7ZM8 1.5C10.5773 1.5 12.6667 3.64903 12.6667 6.3V7.7H3.33333V6.3C3.33333 3.64903 5.42267 1.5 8 1.5Z" stroke="#555555" stroke-width="1.2" stroke-linecap="round"/>
</svg>
