<svg width="24" height="24" viewBox="0 0 24 24" fill="none" xmlns="http://www.w3.org/2000/svg">
<g id="btn">
<path id="Vector" d="M10.2779 0C15.9546 0 20.5557 4.60148 20.5557 10.2786C20.5557 12.6954 19.6928 14.9996 18.162 16.8557L23.7298 22.4238C24.0901 22.7842 24.0901 23.3694 23.7298 23.7298C23.3695 24.0901 22.7842 24.0901 22.424 23.7298L16.8562 18.1616C15.0214 19.7522 12.6769 20.4975 10.2779 20.5572C4.60114 20.5572 0 15.9558 0 10.2786C0 4.60148 4.60114 0 10.2779 0ZM10.2779 1.84551C5.62049 1.84551 1.84538 5.6209 1.84538 10.2786C1.84538 14.9363 5.62049 18.7117 10.2779 18.7117C14.9352 18.7117 18.7104 14.9363 18.7104 10.2786C18.7104 5.6209 14.9352 1.84551 10.2779 1.84551Z" fill="#222222"/>
</g>
</svg>
